<svg xmlns="http://www.w3.org/2000/svg" viewBox="0 0 198 40" width="198" height="40">
	<style>
		tspan { white-space:pre }
		.shp0 { fill: #ee4d4e } 
	</style>
	<g id="layer1">
		<path id="path835" class="shp0" d="M184.83 13.16C181.68 13.16 179.12 10.61 179.12 7.45C179.12 4.29 181.68 1.74 184.83 1.74C187.99 1.74 190.54 4.29 190.54 7.45C190.54 10.61 187.99 13.16 184.83 13.16Z" />
		<path id="NOOBBOT " fill="#0160c1" d="M16.69 13.8L24.97 13.8L24.97 39L17.98 39L8.41 27.55L8.41 39L0.13 39L0.13 13.8L7.11 13.8L16.69 25.25L16.69 13.8ZM42.28 39.58Q38.21 39.58 34.97 37.88Q31.73 36.19 29.9 33.2Q28.06 30.18 28.06 26.4Q28.06 22.62 29.9 19.63Q31.73 16.61 34.97 14.92Q38.21 13.22 42.28 13.22Q46.35 13.22 49.59 14.92Q52.83 16.61 54.67 19.63Q56.5 22.62 56.5 26.4Q56.5 30.18 54.67 33.2Q52.83 36.19 49.59 37.88Q46.35 39.58 42.28 39.58ZM42.28 32.7Q43.87 32.7 45.13 31.94Q46.42 31.15 47.18 29.75Q47.93 28.31 47.93 26.4Q47.93 24.49 47.18 23.09Q46.42 21.65 45.13 20.89Q43.87 20.1 42.28 20.1Q40.7 20.1 39.4 20.89Q38.14 21.65 37.39 23.09Q36.63 24.49 36.63 26.4Q36.63 28.31 37.39 29.75Q38.14 31.15 39.4 31.94Q40.7 32.7 42.28 32.7ZM72.81 39.58Q68.74 39.58 65.5 37.88Q62.26 36.19 60.43 33.2Q58.59 30.18 58.59 26.4Q58.59 22.62 60.43 19.63Q62.26 16.61 65.5 14.92Q68.74 13.22 72.81 13.22Q76.88 13.22 80.12 14.92Q83.36 16.61 85.19 19.63Q87.03 22.62 87.03 26.4Q87.03 30.18 85.19 33.2Q83.36 36.19 80.12 37.88Q76.88 39.58 72.81 39.58ZM72.81 32.7Q74.39 32.7 75.65 31.94Q76.95 31.15 77.71 29.75Q78.46 28.31 78.46 26.4Q78.46 24.49 77.71 23.09Q76.95 21.65 75.65 20.89Q74.39 20.1 72.81 20.1Q71.23 20.1 69.93 20.89Q68.67 21.65 67.91 23.09Q67.16 24.49 67.16 26.4Q67.16 28.31 67.91 29.75Q68.67 31.15 69.93 31.94Q71.23 32.7 72.81 32.7ZM110.29 25.82Q112.52 26.65 113.74 28.24Q114.97 29.82 114.97 32.05Q114.97 35.36 112.23 37.2Q109.49 39 104.31 39L90.13 39L90.13 13.8L103.59 13.8Q108.63 13.8 111.19 15.6Q113.78 17.4 113.78 20.39Q113.78 22.15 112.88 23.56Q112.01 24.96 110.29 25.82ZM102.44 19.74L98.48 19.74L98.48 23.48L102.44 23.48Q105.21 23.48 105.21 21.61Q105.21 19.74 102.44 19.74ZM103.59 33.06Q106.4 33.06 106.4 31.08Q106.4 29.1 103.59 29.1L98.48 29.1L98.48 33.06L103.59 33.06ZM138.11 25.82Q140.35 26.65 141.57 28.24Q142.79 29.82 142.79 32.05Q142.79 35.36 140.06 37.2Q137.32 39 132.14 39L117.95 39L117.95 13.8L131.42 13.8Q136.46 13.8 139.01 15.6Q141.61 17.4 141.61 20.39Q141.61 22.15 140.71 23.56Q139.84 24.96 138.11 25.82ZM130.27 19.74L126.31 19.74L126.31 23.48L130.27 23.48Q133.04 23.48 133.04 21.61Q133.04 19.74 130.27 19.74ZM131.42 33.06Q134.23 33.06 134.23 31.08Q134.23 29.1 131.42 29.1L126.31 29.1L126.31 33.06L131.42 33.06ZM158.99 39.58Q154.93 39.58 151.69 37.88Q148.45 36.19 146.61 33.2Q144.77 30.18 144.77 26.4Q144.77 22.62 146.61 19.63Q148.45 16.61 151.69 14.92Q154.93 13.22 158.99 13.22Q163.06 13.22 166.3 14.92Q169.54 16.61 171.38 19.63Q173.21 22.62 173.21 26.4Q173.21 30.18 171.38 33.2Q169.54 36.19 166.3 37.88Q163.06 39.58 158.99 39.58ZM158.99 32.7Q160.58 32.7 161.84 31.94Q163.13 31.15 163.89 29.75Q164.65 28.31 164.65 26.4Q164.65 24.49 163.89 23.09Q163.13 21.65 161.84 20.89Q160.58 20.1 158.99 20.1Q157.41 20.1 156.11 20.89Q154.85 21.65 154.1 23.09Q153.34 24.49 153.34 26.4Q153.34 28.31 154.1 29.75Q154.85 31.15 156.11 31.94Q157.41 32.7 158.99 32.7ZM181.42 39L181.42 20.39L174.04 20.39L174.04 13.8L197.3 13.8L197.3 20.39L189.92 20.39L189.92 39L181.42 39Z" />
	</g>
</svg>