<svg xmlns="http://www.w3.org/2000/svg" viewBox="0 0 210 47" width="210" height="47">
	<style>
		tspan { white-space:pre }
		.shp0 { fill: #ffffff } 
		.shp1 { fill: #fdfdfd } 
		.shp2 { fill: #ee4d4e } 
	</style>
	<g id="layer1">
		<path id="path877" class="shp0" d="M29.57 17.3L29.57 43.24L22.38 43.24L12.52 31.46L12.52 43.24L4 43.24L4 17.3L11.19 17.3L21.05 29.09L21.05 17.3L29.57 17.3Z" />
		<path id="path879" fill-rule="evenodd" class="shp0" d="M47.4 43.84C44.61 43.84 42.1 43.26 39.88 42.1C37.65 40.93 35.91 39.33 34.65 37.28C33.39 35.2 32.76 32.87 32.76 30.27C32.76 27.68 33.39 25.36 34.65 23.31C35.91 21.23 37.65 19.61 39.88 18.45C42.1 17.29 44.61 16.71 47.4 16.71C50.19 16.71 52.7 17.29 54.92 18.45C57.15 19.61 58.89 21.23 60.15 23.31C61.41 25.36 62.04 27.68 62.04 30.27C62.04 32.87 61.41 35.2 60.15 37.28C58.89 39.33 57.15 40.93 54.92 42.1C52.7 43.26 50.19 43.84 47.4 43.84ZM47.4 36.76C48.49 36.76 49.46 36.5 50.33 35.98C51.22 35.44 51.92 34.68 52.44 33.72C52.96 32.73 53.22 31.58 53.22 30.27C53.22 28.96 52.96 27.83 52.44 26.86C51.92 25.87 51.22 25.12 50.33 24.6C49.46 24.06 48.49 23.79 47.4 23.79C46.31 23.79 45.32 24.06 44.43 24.6C43.57 25.12 42.88 25.87 42.36 26.86C41.84 27.83 41.58 28.96 41.58 30.27C41.58 31.58 41.84 32.73 42.36 33.72C42.88 34.68 43.57 35.44 44.43 35.98C45.32 36.5 46.31 36.76 47.4 36.76Z" />
		<path id="path881" fill-rule="evenodd" class="shp0" d="M78.83 43.84C76.04 43.84 73.53 43.26 71.3 42.1C69.08 40.93 67.34 39.33 66.08 37.28C64.82 35.2 64.19 32.87 64.19 30.27C64.19 27.68 64.82 25.36 66.08 23.31C67.34 21.23 69.08 19.61 71.3 18.45C73.53 17.29 76.04 16.71 78.83 16.71C81.62 16.71 84.13 17.29 86.35 18.45C88.58 19.61 90.32 21.23 91.58 23.31C92.84 25.36 93.47 27.68 93.47 30.27C93.47 32.87 92.84 35.2 91.58 37.28C90.32 39.33 88.58 40.93 86.35 42.1C84.13 43.26 81.62 43.84 78.83 43.84ZM78.83 36.76C79.92 36.76 80.89 36.5 81.76 35.98C82.65 35.44 83.35 34.68 83.87 33.72C84.39 32.73 84.65 31.58 84.65 30.27C84.65 28.96 84.39 27.83 83.87 26.86C83.35 25.87 82.65 25.12 81.76 24.6C80.89 24.06 79.92 23.79 78.83 23.79C77.74 23.79 76.75 24.06 75.86 24.6C75 25.12 74.31 25.87 73.79 26.86C73.27 27.83 73.01 28.96 73.01 30.27C73.01 31.58 73.27 32.73 73.79 33.72C74.31 34.68 75 35.44 75.86 35.98C76.75 36.5 77.74 36.76 78.83 36.76Z" />
		<path id="path883" fill-rule="evenodd" class="shp0" d="M120.97 32.16C121.81 33.25 122.23 34.56 122.23 36.09C122.23 38.36 121.29 40.13 119.41 41.39C117.53 42.63 114.82 43.24 111.26 43.24L96.66 43.24L96.66 17.3L110.52 17.3C113.98 17.3 116.58 17.92 118.34 19.15C120.12 20.39 121.01 22.03 121.01 24.08C121.01 25.29 120.7 26.38 120.08 27.34C119.49 28.31 118.6 29.09 117.41 29.68C118.94 30.25 120.13 31.08 120.97 32.16ZM105.25 23.42L105.25 27.27L109.33 27.27C111.23 27.27 112.18 26.63 112.18 25.34C112.18 24.06 111.23 23.42 109.33 23.42L105.25 23.42ZM110.52 37.13C112.44 37.13 113.41 36.45 113.41 35.09C113.41 33.73 112.44 33.05 110.52 33.05L105.25 33.05L105.25 37.13L110.52 37.13Z" />
		<path id="path885" fill-rule="evenodd" class="shp0" d="M149.62 32.16C150.46 33.25 150.88 34.56 150.88 36.09C150.88 38.36 149.94 40.13 148.06 41.39C146.18 42.63 143.47 43.24 139.91 43.24L125.3 43.24L125.3 17.3L139.17 17.3C142.62 17.3 145.23 17.92 146.99 19.15C148.76 20.39 149.65 22.03 149.65 24.08C149.65 25.29 149.35 26.38 148.73 27.34C148.13 28.31 147.25 29.09 146.06 29.68C147.59 30.25 148.78 31.08 149.62 32.16ZM133.9 23.42L133.9 27.27L137.98 27.27C139.88 27.27 140.83 26.63 140.83 25.34C140.83 24.06 139.88 23.42 137.98 23.42L133.9 23.42ZM139.17 37.13C141.09 37.13 142.06 36.45 142.06 35.09C142.06 33.73 141.09 33.05 139.17 33.05L133.9 33.05L133.9 37.13L139.17 37.13Z" />
		<path id="path887" fill-rule="evenodd" class="shp0" d="M167.56 43.84C164.76 43.84 162.26 43.26 160.03 42.1C157.81 40.93 156.07 39.33 154.81 37.28C153.55 35.2 152.92 32.87 152.92 30.27C152.92 27.68 153.55 25.36 154.81 23.31C156.07 21.23 157.81 19.61 160.03 18.45C162.26 17.29 164.76 16.71 167.56 16.71C170.35 16.71 172.86 17.29 175.08 18.45C177.3 19.61 179.04 21.23 180.3 23.31C181.56 25.36 182.2 27.68 182.2 30.27C182.2 32.87 181.56 35.2 180.3 37.28C179.04 39.33 177.3 40.93 175.08 42.1C172.86 43.26 170.35 43.84 167.56 43.84ZM167.56 36.76C168.64 36.76 169.62 36.5 170.48 35.98C171.37 35.44 172.08 34.68 172.6 33.72C173.11 32.73 173.37 31.58 173.37 30.27C173.37 28.96 173.11 27.83 172.6 26.86C172.08 25.87 171.37 25.12 170.48 24.6C169.62 24.06 168.64 23.79 167.56 23.79C166.47 23.79 165.48 24.06 164.59 24.6C163.73 25.12 163.03 25.87 162.51 26.86C162 27.83 161.74 28.96 161.74 30.27C161.74 31.58 162 32.73 162.51 33.72C163.03 34.68 163.73 35.44 164.59 35.98C165.48 36.5 166.47 36.76 167.56 36.76Z" />
		<path id="path889" class="shp1" d="M190.65 24.08L183.05 24.08L183.05 17.3L206.99 17.3L206.99 24.08L199.39 24.08L199.39 43.24L190.65 43.24L190.65 24.08Z" />
		<path id="path835" class="shp2" d="M194.87 15.77C191.38 15.77 188.56 12.95 188.56 9.46C188.56 5.97 191.38 3.15 194.87 3.15C198.36 3.15 201.18 5.97 201.18 9.46C201.18 12.95 198.36 15.77 194.87 15.77Z" />
	</g>
</svg>