<?xml version="1.0" encoding="utf-8"?>
<!-- Generator: Adobe Illustrator 24.3.0, SVG Export Plug-In . SVG Version: 6.00 Build 0)  -->
<svg version="1.1" id="_x31__x2C_5" xmlns="http://www.w3.org/2000/svg" xmlns:xlink="http://www.w3.org/1999/xlink" x="0px"
	 y="0px" viewBox="0 0 512 512" style="enable-background:new 0 0 512 512;" xml:space="preserve">
<style type="text/css">
	.st0{fill:#EFEFEF;}
	.st1{fill:#A4AFC1;}
	.st2{fill:#F3F3F1;}
	.st3{fill:#EE4D4E;}
	.st4{fill:#D5DBE1;}
	.st5{fill:#CC0000;}
</style>
<path class="st0" d="M119.1,452.7c98.4,0,165.9,51,213.3,51s147-27.2,147-245.3S345.5,8.3,293.4,8.3
	C49.2,8.3-55.1,452.7,119.1,452.7L119.1,452.7z"/>
<path class="st1" d="M433.8,213.3c-11.8,0-21.3-9.6-21.3-21.3c0-11.8,9.6-21.3,21.3-21.3c11.8,0,21.3,9.6,21.3,21.3
	C455.1,203.8,445.5,213.3,433.8,213.3z M433.8,184.9c-3.9,0-7.1,3.2-7.1,7.1s3.2,7.1,7.1,7.1s7.1-3.2,7.1-7.1
	S437.7,184.9,433.8,184.9z"/>
<path class="st2" d="M330.7,124.4c0-15.6-12.8-28.4-28.4-28.4H124.4C108.8,96,96,108.8,96,124.4v74.7h234.7V124.4z"/>
<path class="st3" d="M96,199.1h234.7v110.2H96V199.1z"/>
<path class="st2" d="M330.7,387.6v-78.2H96v78.2c0,15.7,12.7,28.4,28.4,28.4h177.8C317.9,416,330.7,403.3,330.7,387.6z"/>
<path class="st4" d="M156.4,96h-32C108.8,96,96,108.8,96,124.4v74.7h32v-74.7C128,108.8,140.8,96,156.4,96z"/>
<path class="st4" d="M128,387.6v-78.2H96v78.2c0,15.7,12.7,28.4,28.4,28.4h32C140.7,416,128,403.3,128,387.6z"/>
<path class="st5" d="M96,199.1h32v110.2H96V199.1z"/>
<path d="M341.3,426.7c-47.1,0-85.3-38.3-85.3-85.3h21.3c0,35.3,28.7,64,64,64s64-28.7,64-64s-28.7-64-64-64
	c-19.7,0-37.2,8.6-49.3,24.3l-16.9-13c16.2-21,39.7-32.6,66.2-32.6c47.1,0,85.3,38.3,85.3,85.3S388.4,426.7,341.3,426.7z"/>
<path d="M323.6,309.3h-42.7c-5.9,0-10.7-4.8-10.7-10.7V256h21.3v32h32V309.3z"/>
<path d="M256,426.7H124.4c-21.6,0-39.1-17.5-39.1-39.1V124.4c0-21.6,17.5-39.1,39.1-39.1h177.8c21.6,0,39.1,17.5,39.1,39.1v103.1
	H320V124.4c0-9.8-8-17.8-17.8-17.8H124.4c-9.8,0-17.8,8-17.8,17.8v263.1c0,9.8,8,17.8,17.8,17.8H256V426.7z"/>
<path d="M96,192h234.7v21.3H96V192z"/>
<path d="M92.4,298.7h149.3V320H92.4V298.7z"/>
<circle cx="270.2" cy="156.4" r="14.2"/>
<circle cx="213.3" cy="156.4" r="14.2"/>
<circle cx="156.4" cy="156.4" r="14.2"/>
</svg>
