<?xml version="1.0" encoding="utf-8"?>
<!-- Generator: Adobe Illustrator 24.3.0, SVG Export Plug-In . SVG Version: 6.00 Build 0)  -->
<svg version="1.1" id="line" xmlns="http://www.w3.org/2000/svg" xmlns:xlink="http://www.w3.org/1999/xlink" x="0px" y="0px"
	 viewBox="0 0 512 512" style="enable-background:new 0 0 512 512;" xml:space="preserve">
<style type="text/css">
	.st0{fill:#EFEFEF;}
	.st1{fill:#A4AFC1;}
	.st2{fill:#F3F3F1;}
	.st3{fill:#EE4D4E;}
	.st4{fill:#BF000A;}
	.st5{fill:#D5DBE1;}
</style>
<g>
	<path class="st0" d="M392.9,452.7c-98.4,0-165.9,51-213.3,51s-147-27.2-147-245.3S166.5,8.3,218.6,8.3
		C462.8,8.3,567.1,452.7,392.9,452.7z"/>
</g>
<g>
	<path class="st1" d="M136.9,46.2h14.2v28.4h-14.2V46.2z"/>
</g>
<g>
	<path class="st1" d="M87.1,88.9h28.4v14.2H87.1V88.9z"/>
</g>
<g>
	<path class="st1" d="M168.9,88.9h28.4v14.2h-28.4V88.9z"/>
</g>
<g>
	<path class="st2" d="M316.4,259.6v-13.1c0-7.5-3-14.8-8.3-20.1L288,206.2v-41.8c0-14.5-4.4-28.6-12.6-40.5L256,96l-19.4,28
		c-8.2,11.9-12.6,26-12.6,40.5v41.8l-20.1,20.1c-5.3,5.3-8.3,12.6-8.3,20.1v13.1H316.4z"/>
</g>
<g>
	<path class="st3" d="M401.8,152.9h-64H287c0.6,3.8,1,7.7,1,11.5v41.8l20.1,20.1c5.3,5.3,8.3,12.6,8.3,20.1v13.1H195.6v-13.1
		c0-7.5,3-14.8,8.3-20.1l20.1-20.1v-41.8c0-3.9,0.4-7.7,1-11.5h-50.8h-64c-7.9,0-14.2,6.4-14.2,14.2v177.8c0,7.9,6.4,14.2,14.2,14.2
		h291.6c7.9,0,14.2-6.4,14.2-14.2V167.1C416,159.3,409.6,152.9,401.8,152.9z"/>
</g>
<g>
	<path class="st4" d="M128,344.9V167.1c0-7.9,6.4-14.2,14.2-14.2h-32c-7.9,0-14.2,6.4-14.2,14.2v177.8c0,7.9,6.4,14.2,14.2,14.2h32
		C134.4,359.1,128,352.7,128,344.9z"/>
</g>
<g>
	<path class="st5" d="M234.1,226.3l20.1-20.1v-41.8c0-14.5,4.4-28.6,12.6-40.5l4.2-6.1L256,96l-19.4,28c-8.2,11.9-12.6,26-12.6,40.5
		v41.8l-20.1,20.1c-5.3,5.3-8.3,12.6-8.3,20.1v13.1h30.2v-13.1C225.8,238.9,228.8,231.7,234.1,226.3z"/>
</g>
<g>
	<path d="M401.8,369.8H110.2c-13.7,0-24.9-11.2-24.9-24.9V167.1c0-13.7,11.2-24.9,24.9-24.9h64v21.3h-64c-2,0-3.6,1.6-3.6,3.6v177.8
		c0,2,1.6,3.6,3.6,3.6h291.6c2,0,3.6-1.6,3.6-3.6V167.1c0-2-1.6-3.6-3.6-3.6h-64v-21.3h64c13.7,0,24.9,11.2,24.9,24.9v177.8
		C426.7,358.6,415.5,369.8,401.8,369.8z"/>
</g>
<g>
	<path d="M245.3,359.1h21.3V416h-21.3V359.1z"/>
</g>
<g>
	<path d="M184.9,405.3h142.2v21.3H184.9V405.3z"/>
</g>
<g>
	<path d="M316.4,270.2H195.6c-5.9,0-10.7-4.8-10.7-10.7v-13.1c0-10.5,4.1-20.3,11.5-27.7l17-17v-37.4c0-16.7,5-32.8,14.5-46.5
		l19.4-28c4-5.8,13.6-5.8,17.5,0l19.4,28c9.5,13.8,14.6,29.9,14.6,46.5v37.4l17,17c7.4,7.4,11.5,17.2,11.5,27.7v13.1
		C327.1,265.4,322.3,270.2,316.4,270.2z M206.2,248.9h99.6v-2.4c0-4.8-1.8-9.2-5.2-12.6l-20.1-20.1c-2-2-3.1-4.7-3.1-7.5v-41.8
		c0-12.3-3.7-24.2-10.8-34.4L256,114.7L245.4,130c-7,10.2-10.7,22.1-10.7,34.4v41.8c0,2.8-1.1,5.5-3.1,7.5l-20.1,20.1
		c-3.4,3.4-5.2,7.8-5.2,12.6L206.2,248.9z"/>
</g>
<g>
	<path d="M277.3,259.6h21.3V288h-21.3V259.6z"/>
</g>
<g>
	<path d="M213.3,259.6h21.3V288h-21.3V259.6z"/>
</g>
<g>
	<path d="M28.4,405.3h455.1v21.3H28.4V405.3z"/>
</g>
</svg>
