<?xml version="1.0" encoding="utf-8"?>
<!-- Generator: Adobe Illustrator 24.3.0, SVG Export Plug-In . SVG Version: 6.00 Build 0)  -->
<svg version="1.1" id="Layer_1" xmlns="http://www.w3.org/2000/svg" xmlns:xlink="http://www.w3.org/1999/xlink" x="0px" y="0px"
	 viewBox="0 0 512 512" style="enable-background:new 0 0 512 512;" xml:space="preserve">
<style type="text/css">
	.st0{fill:#EFEFEF;}
	.st1{fill:#F3F3F1;}
	.st2{fill:#EF4D4F;}
	.st3{fill:#D5DBE1;}
	.st4{fill:#CC0000;}
	.st5{fill:#A4AFC1;}
</style>
<g id="BG">
	<g>
		<path class="st0" d="M190.7,497.8c89.6-40.7,172.2-22.2,215.3-41.8c43.2-19.6,122.6-85.6,32.4-284.1S213.2-0.5,165.7,21
			C-56.6,122,32.1,569.8,190.7,497.8L190.7,497.8z"/>
	</g>
</g>
<g id="color">
	<g>
		<path class="st1" d="M407.6,276.2l-30.2,30.2v42.6c0,15.7-12.9,28.6-28.6,28.6h-42.6l-30.2,30.2c-11.2,11.2-29.2,11.2-40.3,0
			l-30.2-30.2h-42.6c-15.7,0-28.6-12.9-28.6-28.6v-42.6l-30.2-30.2c-11.2-11.2-11.2-29.2,0-40.3l30.2-30.2v-42.6
			c0-15.7,12.9-28.6,28.6-28.6h42.6l30.2-30.2c11.2-11.2,29.2-11.2,40.3,0l30.2,30.2h42.6c15.7,0,28.6,12.9,28.6,28.6v42.6
			l30.2,30.2C418.8,247,418.8,265,407.6,276.2L407.6,276.2z"/>
	</g>
	<g>
		<circle class="st2" cx="256" cy="256" r="74.7"/>
	</g>
	<g>
		<g>
			<path class="st3" d="M267.8,104.4c1.3-1.3,2.7-2.4,4.2-3.4c-11.1-7.6-26.3-6.5-36.2,3.4l-30.2,30.2h32L267.8,104.4z"/>
		</g>
		<g>
			<path class="st3" d="M267.8,407.6l-30.2-30.2h-32l30.2,30.2c9.9,9.9,25.1,11,36.2,3.4C270.5,410,269.1,408.9,267.8,407.6
				L267.8,407.6z"/>
		</g>
		<g>
			<path class="st3" d="M166.5,348.9v-42.6l-30.2-30.2c-11.2-11.2-11.2-29.2,0-40.3l30.2-30.2v-42.6c0-15.7,12.9-28.6,28.6-28.6h-32
				c-15.7,0-28.6,12.9-28.6,28.6v42.6l-30.2,30.2c-11.2,11.2-11.2,29.2,0,40.3l30.2,30.2v42.6c0,15.7,12.9,28.6,28.6,28.6h32
				C179.4,377.5,166.5,364.6,166.5,348.9L166.5,348.9z"/>
		</g>
	</g>
	<g>
		<path class="st4" d="M213.3,256c0-35.7,25.1-65.5,58.7-72.9c-5.2-1.1-10.5-1.8-16-1.8c-41.2,0-74.7,33.4-74.7,74.7
			c0,41.2,33.4,74.7,74.7,74.7c5.5,0,10.8-0.7,16-1.8C238.5,321.5,213.3,291.7,213.3,256z"/>
	</g>
</g>
<g id="effect">
	<g>
		<g>
			<path class="st5" d="M42.6,51.4l10.1-10.1l20.1,20.1L62.7,71.5L42.6,51.4z"/>
		</g>
		<g>
			<path class="st5" d="M40.1,119.3l20.1-20.1l10.1,10.1l-20.1,20.1L40.1,119.3z"/>
		</g>
		<g>
			<path class="st5" d="M97.9,61.5L118,41.4l10.1,10.1l-20.1,20.1L97.9,61.5z"/>
		</g>
	</g>
	<g>
		<path class="st5" d="M430.2,88.9c-11.8,0-21.3-9.6-21.3-21.3s9.6-21.3,21.3-21.3s21.3,9.6,21.3,21.3S442,88.9,430.2,88.9z
			 M430.2,60.4c-3.9,0-7.1,3.2-7.1,7.1s3.2,7.1,7.1,7.1s7.1-3.2,7.1-7.1S434.1,60.4,430.2,60.4z"/>
	</g>
</g>
<g id="regular_1.5">
	<g>
		<path d="M256,341.3c-47.1,0-85.3-38.3-85.3-85.3s38.3-85.3,85.3-85.3s85.3,38.3,85.3,85.3S303.1,341.3,256,341.3z M256,192
			c-35.3,0-64,28.7-64,64s28.7,64,64,64s64-28.7,64-64S291.3,192,256,192z"/>
	</g>
	<g>
		<path d="M256,426.7c-10.5,0-20.3-4.1-27.7-11.5l-27-27h-38.2c-21.6,0-39.3-17.6-39.3-39.3v-38.2l-27-27
			c-7.4-7.4-11.5-17.3-11.5-27.7s4.1-20.3,11.5-27.7l27-27v-38.2c0-21.6,17.6-39.3,39.3-39.3h38.2l27-27c14.8-14.8,40.6-14.8,55.4,0
			l27,27h38.2c21.6,0,39.3,17.6,39.3,39.3v38.2l27,27c7.4,7.4,11.5,17.2,11.5,27.7s-4.1,20.3-11.5,27.7l-27,27v38.2
			c0,21.6-17.6,39.3-39.3,39.3h-38.2l-27,27C276.3,422.6,266.5,426.7,256,426.7z M163.1,145.2c-9.9,0-17.9,8-17.9,17.9v42.6
			c0,2.8-1.1,5.5-3.1,7.5l-30.2,30.2c-7,7-7,18.3,0,25.2l30.2,30.2c2,2,3.1,4.7,3.1,7.5v42.6c0,9.9,8,17.9,17.9,17.9h42.6
			c2.8,0,5.5,1.1,7.5,3.1l30.2,30.2c7,7,18.3,7,25.2,0l30.2-30.2c2-2,4.7-3.1,7.5-3.1h42.6c9.9,0,17.9-8,17.9-17.9v-42.6
			c0-2.8,1.1-5.5,3.1-7.5l30.2-30.2c7-7,7-18.3,0-25.2l-30.2-30.2c-2-2-3.1-4.7-3.1-7.5v-42.6c0-9.9-8-17.9-17.9-17.9h-42.6
			c-2.8,0-5.5-1.1-7.5-3.1l-30.2-30.2c-7-7-18.3-7-25.2,0l-30.2,30.2c-2,2-4.7,3.1-7.5,3.1L163.1,145.2z"/>
	</g>
</g>
</svg>
