<?xml version="1.0" encoding="utf-8"?>
<!-- Generator: Adobe Illustrator 24.3.0, SVG Export Plug-In . SVG Version: 6.00 Build 0)  -->
<svg version="1.1" id="Layer_1" xmlns="http://www.w3.org/2000/svg" xmlns:xlink="http://www.w3.org/1999/xlink" x="0px" y="0px"
	 viewBox="0 0 512 512" style="enable-background:new 0 0 512 512;" xml:space="preserve">
<style type="text/css">
	.st0{fill:#EFEFEF;}
	.st1{fill:#A4AFC1;}
	.st2{fill:#F3F3F1;}
	.st3{fill:#EE4D4E;}
	.st4{fill:#D5DBE1;}
	.st5{fill:#CC0000;}
</style>
<g id="BG">
	<g>
		<path class="st0" d="M119.1,452.7c98.4,0,165.9,51,213.3,51s147-27.2,147-245.3S345.5,8.3,293.4,8.3
			C49.2,8.3-55.1,452.7,119.1,452.7L119.1,452.7z"/>
	</g>
</g>
<g id="effect">
	<g>
		<path class="st1" d="M439.1,145.8c-11.8,0-21.3-9.6-21.3-21.3s9.6-21.3,21.3-21.3s21.3,9.6,21.3,21.3S450.9,145.8,439.1,145.8z
			 M439.1,117.3c-3.9,0-7.1,3.2-7.1,7.1s3.2,7.1,7.1,7.1s7.1-3.2,7.1-7.1S443,117.3,439.1,117.3z"/>
	</g>
	<g>
		<g>
			<path class="st1" d="M451.6,401.8h14.2v28.4h-14.2V401.8z"/>
		</g>
		<g>
			<path class="st1" d="M451.6,483.6h14.2V512h-14.2V483.6z"/>
		</g>
		<g>
			<path class="st1" d="M401.8,448h28.4v14.2h-28.4V448z"/>
		</g>
		<g>
			<path class="st1" d="M483.6,448H512v14.2h-28.4V448z"/>
		</g>
	</g>
</g>
<g id="color">
	<g>
		<path class="st2" d="M404.8,189.6l-31.4-16.8H138.7l-31.4,16.8c-6.8,3.7-11.2,11-11.2,18.8v172.1c0,11.8,9.5,21.3,21.3,21.3h277.3
			c11.8,0,21.3-9.5,21.3-21.3V208.4C416,200.5,411.6,193.3,404.8,189.6z"/>
	</g>
	<g>
		<path class="st2" d="M96,236.5l146.8,76.7c8.2,4.3,18.2,4.3,26.5,0L416,236.5H96z"/>
	</g>
	<g>
		<path class="st2" d="M344.9,96H167.1c-15.6,0-28.4,12.8-28.4,28.4v134.4L256,316.4l117.3-57.5V124.4
			C373.3,108.8,360.5,96,344.9,96L344.9,96z"/>
	</g>
	<g>
		<g>
			<path class="st3" d="M256,133c25.5,0,46.2,38.9,46.2,73.4s-20.7,51.7-46.2,51.7s-46.2-17.1-46.2-51.7S230.5,133,256,133L256,133z
				"/>
		</g>
	</g>
</g>
<g id="shadow">
	<g>
		<path class="st4" d="M128,380.4V208.4c0-7.8,4.4-15.1,11.2-18.8l31.4-16.8h-32l-31.4,16.8c-6.8,3.7-11.2,11-11.2,18.8v172.1
			c0,11.8,9.5,21.3,21.3,21.3h32C137.5,401.8,128,392.2,128,380.4z"/>
	</g>
	<g>
		<path class="st4" d="M170.7,258.8V124.4c0-15.6,12.8-28.4,28.4-28.4h-32c-15.6,0-28.4,12.8-28.4,28.4v134.4L256,316.4l16-7.9
			L170.7,258.8z"/>
	</g>
	<g>
		<path class="st5" d="M241.8,206.4c0-26.9,12.6-56.4,30.2-68.1c-5-3.3-10.4-5.3-16-5.3c-25.5,0-46.2,38.9-46.2,73.4
			c0,34.5,20.7,51.7,46.2,51.7c5.6,0,11-1,16-2.7C254.4,249.5,241.8,233.3,241.8,206.4L241.8,206.4z"/>
	</g>
</g>
<g id="_x31_.5">
	<g>
		<path d="M394.7,412.4H117.3c-17.6,0-32-14.4-32-32V208.4c0-11.7,6.4-22.5,16.8-28.1l31.5-16.8l10,18.8L112.3,199
			c-3.4,1.8-5.6,5.5-5.6,9.4v172.1c0,5.9,4.8,10.7,10.7,10.7h277.3c5.9,0,10.7-4.8,10.7-10.7V208.4c0-3.9-2.2-7.5-5.6-9.4
			l-31.4-16.7l10-18.8l31.4,16.8c10.4,5.6,16.9,16.4,16.9,28.2v172.1C426.7,398.1,412.3,412.4,394.7,412.4z"/>
	</g>
	<g>
		<path d="M256,327.1c-6.2,0-12.5-1.5-18.1-4.4L91.1,246l9.9-18.9l146.8,76.7c5.2,2.7,11.4,2.7,16.6,0l146.7-76.6l9.9,18.9
			l-146.8,76.7C268.5,325.6,262.2,327.1,256,327.1z"/>
	</g>
	<g>
		<path d="M384,258.8h-21.3V124.4c0-9.8-8-17.8-17.8-17.8H167.1c-9.8,0-17.8,8-17.8,17.8v134.4H128V124.4
			c0-21.6,17.5-39.1,39.1-39.1h177.8c21.6,0,39.1,17.5,39.1,39.1V258.8z"/>
	</g>
	<g>
		<g>
			<path d="M256,268.8c-28.3,0-56.9-19.3-56.9-62.3c0-39.7,24.3-84.1,56.9-84.1s56.9,44.4,56.9,84.1
				C312.9,249.5,284.3,268.8,256,268.8z M256,143.7c-17.3,0-35.6,32.3-35.6,62.7c0,25.7,13.3,41,35.6,41s35.6-15.3,35.6-41
				C291.6,175.9,273.3,143.7,256,143.7L256,143.7z"/>
		</g>
		<g>
			<path d="M294.1,221.4c-2.8,0-5.5-1.1-7.6-3.1L275,206.7l-11.5,11.5c-4,4-11.1,4-15.1,0L237,206.7l-11.5,11.5c-4,4-11.1,4-15.1,0
				l-6.6-6.6l7.5-7.5l-0.9-0.9l19-19c4-4,11.1-4,15.1,0l11.5,11.5l11.5-11.5c2-2,4.7-3.1,7.5-3.1c2.8,0,5.5,1.1,7.6,3.1l19,19
				l-0.9,0.9l7.5,7.5l-6.6,6.6C299.6,220.2,296.9,221.4,294.1,221.4z"/>
		</g>
	</g>
</g>
</svg>
