<svg id="Capa_1" enable-background="new 0 0 512 512" height="512" viewBox="0 0 512 512" width="512" xmlns="http://www.w3.org/2000/svg"><g><path d="m286 120.07h-180v30h75v60h-56.997v30h56.997v85.845l-17.827 1.62c-24.038 2.183-42.173 22.032-42.173 46.173h30c0-8.525 6.401-15.527 14.883-16.289l120.117-10.921 152.827-13.894c24.038-2.183 42.173-22.031 42.173-46.172v-136.362h31v-30zm-15 197.662-60 5.455v-83.117h60zm0-107.662h-60v-60h60zm90 99.481-60 5.455v-74.936h60zm0-99.481h-60v-60h60zm90 76.362c0 8.525-6.401 15.527-14.883 16.289l-45.117 4.102v-66.753h60zm0-76.362h-60v-60h60z" fill="#d5e8fe"/><path d="m481 286.432v-136.362h31v-30h-226v226.428l152.827-13.894c24.038-2.183 42.173-22.031 42.173-46.172zm-90-136.362h60v60h-60zm-30 159.481-60 5.455v-74.936h60zm0-99.481h-60v-60h60zm30 96.753v-66.753h60v46.362c0 8.525-6.401 15.527-14.883 16.289z" fill="#b5dbff"/><path d="m286 390.07h-118.638c-9.023 0-16.362-7.339-16.362-16.362l-27.949-278.965c-1.919-19.014-15.029-34.688-33.413-39.946l-81.406-22.867-8.232 28.858 81.405 22.866c6.489 1.846 11.118 7.383 11.792 14.092l28.088 278.796c1.498 24.221 21.486 43.528 46.077 43.528h118.638 120v-30z" fill="#d5e8fe"/><path d="m286 390.07h120v30h-120z" fill="#b5dbff"/><g><path d="m226 480.07c-24.814 0-45-20.186-45-45s20.186-45 45-45 45 20.186 45 45-20.186 45-45 45z" fill="#3e4d59"/></g><g><path d="m406 480.07c-24.814 0-45-20.186-45-45s20.186-45 45-45 45 20.186 45 45-20.186 45-45 45z" fill="#242833"/></g><circle cx="226" cy="435.07" fill="#edf5ff" r="15"/><circle cx="406" cy="435.07" fill="#d5e8fe" r="15"/></g></svg>