<?xml version="1.0" encoding="utf-8"?>
<!-- Generator: Adobe Illustrator 24.3.0, SVG Export Plug-In . SVG Version: 6.00 Build 0)  -->
<svg version="1.1" id="_x31__x2C_5" xmlns="http://www.w3.org/2000/svg" xmlns:xlink="http://www.w3.org/1999/xlink" x="0px"
	 y="0px" viewBox="0 0 512 512" style="enable-background:new 0 0 512 512;" xml:space="preserve">
<style type="text/css">
	.st0{fill:#EFEFEF;}
	.st1{fill:#A4AFC1;}
	.st2{fill:#F3F3F1;}
	.st3{fill:#EE4D4E;}
	.st4{fill:#CC0000;}
	.st5{fill:#D5DBE1;}
</style>
<path class="st0" d="M392.9,59.3c-98.4,0-165.9-51-213.3-51s-147,27.2-147,245.3s133.9,250.1,186.1,250.1
	C462.8,503.7,567.1,59.3,392.9,59.3z"/>
<path class="st1" d="M336,88.9h14.2v28.4H336V88.9z"/>
<path class="st1" d="M368,131.6h28.4v14.2H368V131.6z"/>
<g>
	<path class="st2" d="M266.7,387.6l11.5-109.6c1.5-14.5,13.7-25.5,28.3-25.5h69.7c14.6,0,26.8,11,28.3,25.5L416,387.6H266.7z"/>
	<path class="st2" d="M220.4,145.8h-99.6c-13.7,0-24.9-11.2-24.9-24.9c0-13.7,11.2-24.9,24.9-24.9h99.6c13.7,0,24.9,11.2,24.9,24.9
		C245.3,134.6,234.2,145.8,220.4,145.8z"/>
	<path class="st2" d="M220.4,245.3h-99.6c-13.7,0-24.9-11.2-24.9-24.9s11.2-24.9,24.9-24.9h99.6c13.7,0,24.9,11.2,24.9,24.9
		S234.2,245.3,220.4,245.3z"/>
</g>
<path class="st3" d="M391.1,416h-99.6c-13.7,0-24.9-11.2-24.9-24.9s11.2-24.9,24.9-24.9h99.6c13.7,0,24.9,11.2,24.9,24.9
	S404.8,416,391.1,416z"/>
<path class="st3" d="M220.4,195.6h-99.6c-13.7,0-24.9-11.2-24.9-24.9s11.2-24.9,24.9-24.9h99.6c13.7,0,24.9,11.2,24.9,24.9
	S234.2,195.6,220.4,195.6z"/>
<path class="st4" d="M298.7,391.1c0-13.7,11.2-24.9,24.9-24.9h-32c-13.7,0-24.9,11.2-24.9,24.9s11.2,24.9,24.9,24.9h32
	C309.8,416,298.7,404.8,298.7,391.1z"/>
<path class="st4" d="M128,170.7c0-13.7,11.2-24.9,24.9-24.9h-32c-13.7,0-24.9,11.2-24.9,24.9s11.2,24.9,24.9,24.9h32
	C139.2,195.6,128,184.4,128,170.7z"/>
<path class="st5" d="M128,120.9c0-13.7,11.2-24.9,24.9-24.9h-32C107.2,96,96,107.2,96,120.9c0,13.7,11.2,24.9,24.9,24.9h32
	C139.2,145.8,128,134.6,128,120.9z"/>
<path class="st5" d="M128,220.4c0-13.7,11.2-24.9,24.9-24.9h-32c-13.7,0-24.9,11.2-24.9,24.9s11.2,24.9,24.9,24.9h32
	C139.2,245.3,128,234.2,128,220.4z"/>
<path class="st5" d="M291.6,366.2h9.4l9.3-88.3c1.5-14.5,13.7-25.5,28.3-25.5h-32c-14.6,0-26.8,11-28.3,25.5l-11.5,109.6h0.4
	C268.8,375.5,279,366.2,291.6,366.2z"/>
<path d="M391.1,426.7h-99.6c-19.6,0-35.6-16-35.6-35.6s15.9-35.6,35.6-35.6h99.6c19.6,0,35.6,16,35.6,35.6S410.7,426.7,391.1,426.7z
	 M291.6,376.9c-7.9,0-14.2,6.4-14.2,14.2s6.4,14.2,14.2,14.2h99.6c7.9,0,14.2-6.4,14.2-14.2s-6.4-14.2-14.2-14.2H291.6z"/>
<path d="M405.4,388.7L393.8,279c-1-9.1-8.6-15.9-17.7-15.9h-69.7c-9.1,0-16.7,6.8-17.7,15.9l-11.5,109.6l-21.2-2.2l11.5-109.6
	c2.1-20,18.8-35,38.9-35h69.7c20.1,0,36.8,15,38.9,35l11.5,109.6L405.4,388.7z"/>
<path d="M305.8,366.2h21.3V416h-21.3V366.2z"/>
<path d="M220.4,206.2h-99.6c-19.6,0-35.6-16-35.6-35.6s15.9-35.6,35.6-35.6h99.6c19.6,0,35.6,16,35.6,35.6S240.1,206.2,220.4,206.2z
	 M120.9,156.4c-7.9,0-14.2,6.4-14.2,14.2s6.4,14.2,14.2,14.2h99.6c7.9,0,14.2-6.4,14.2-14.2s-6.4-14.2-14.2-14.2H120.9z"/>
<path d="M220.4,156.4h-99.6c-19.6,0-35.6-16-35.6-35.6s15.9-35.6,35.6-35.6h99.6c19.6,0,35.6,16,35.6,35.6S240.1,156.4,220.4,156.4z
	 M120.9,106.7c-7.9,0-14.2,6.4-14.2,14.2s6.4,14.2,14.2,14.2h99.6c7.9,0,14.2-6.4,14.2-14.2s-6.4-14.2-14.2-14.2H120.9z"/>
<path d="M220.4,256h-99.6c-19.6,0-35.6-16-35.6-35.6s15.9-35.6,35.6-35.6h99.6c19.6,0,35.6,16,35.6,35.6S240.1,256,220.4,256z
	 M120.9,206.2c-7.9,0-14.2,6.4-14.2,14.2c0,7.8,6.4,14.2,14.2,14.2h99.6c7.9,0,14.2-6.4,14.2-14.2s-6.4-14.2-14.2-14.2H120.9z"/>
<path d="M135.1,96h21.3v149.3h-21.3V96z"/>
<path d="M195.6,342.2l-17.8-17.8L160,342.2l-15.1-15.1l25.3-25.3c4.2-4.2,10.9-4.2,15.1,0l25.3,25.3L195.6,342.2z"/>
<path d="M227.6,369.8h-28.4c-17.6,0-32-14.4-32-32v-32h21.3v32c0,5.9,4.8,10.7,10.7,10.7h28.4V369.8z"/>
</svg>
