<?xml version="1.0" encoding="utf-8"?>
<!-- Generator: Adobe Illustrator 24.3.0, SVG Export Plug-In . SVG Version: 6.00 Build 0)  -->
<svg version="1.1" id="line" xmlns="http://www.w3.org/2000/svg" xmlns:xlink="http://www.w3.org/1999/xlink" x="0px" y="0px"
	 viewBox="0 0 512 512" style="enable-background:new 0 0 512 512;" xml:space="preserve">
<style type="text/css">
	.st0{fill:#EFEFEF;}
	.st1{fill:#A4AFC1;}
	.st2{fill:#F3F3F1;}
	.st3{fill:#EE4D4E;}
	.st4{fill:#D5DBE1;}
	.st5{fill:#CC0000;}
</style>
<g>
	<path class="st0" d="M452.7,119.1c0,98.4,51,165.9,51,213.3s-27.2,147-245.3,147S8.3,345.5,8.3,293.4
		C8.3,49.2,452.7-55.1,452.7,119.1L452.7,119.1z"/>
</g>
<g>
	<path class="st1" d="M398.2,433.8c-11.8,0-21.3-9.6-21.3-21.3c0-11.8,9.6-21.3,21.3-21.3s21.3,9.6,21.3,21.3
		C419.6,424.2,410,433.8,398.2,433.8z M398.2,405.3c-3.9,0-7.1,3.2-7.1,7.1s3.2,7.1,7.1,7.1s7.1-3.2,7.1-7.1
		S402.1,405.3,398.2,405.3z"/>
</g>
<g>
	<path class="st1" d="M127.6,75.7l20.1-20.1l10.1,10.1l-20.1,20.1L127.6,75.7z"/>
</g>
<g>
	<path class="st1" d="M69.8,133.5l20.1-20.1l10.1,10.1l-20.1,20.1L69.8,133.5z"/>
</g>
<g>
	<path class="st1" d="M72.3,65.6l10.1-10.1l20.1,20.1L92.4,85.7L72.3,65.6z"/>
</g>
<g>
	<path class="st2" d="M330.5,279c0,44.4-17.6,87.2-49.1,118.7l-0.5,0.5l-9.5-66.5L330.5,279z"/>
</g>
<g>
	<path class="st2" d="M233,181.5c-44.4,0-87.2,17.6-118.7,49.1l-0.5,0.5l66.5,9.5L233,181.5z"/>
</g>
<g>
	<ellipse class="st2" cx="328.9" cy="183" rx="24.9" ry="24.9"/>
</g>
<g>
	<path class="st3" d="M231.9,182.8l-66.9,75l89.3,89.3l75-66.9c51.3-43.9,88.3-116.6,86.7-184.1C348.4,94.5,275.8,131.4,231.9,182.8
		L231.9,182.8z M311.4,200.6c-9.7-9.7-9.7-25.5,0-35.2c9.7-9.7,25.5-9.7,35.2,0c9.7,9.7,9.7,25.5,0,35.2
		C336.9,210.3,321.1,210.3,311.4,200.6L311.4,200.6z"/>
</g>
<g>
	<path class="st3" d="M178.4,382C165.1,395.3,96,416,96,416s20.7-69.1,34-82.4c13.4-13.4,35-13.4,48.4,0
		C191.8,346.9,191.8,368.6,178.4,382z"/>
</g>
<g>
	<path class="st4" d="M303.3,331.7l24.2-21.5c1.9-10.2,3-20.6,3-31.1l-59.2,52.7l9.5,66.5l0.5-0.5c10.5-10.5,19.2-22.2,26.5-34.8
		L303.3,331.7z"/>
</g>
<g>
	<path class="st4" d="M145.8,231.2l0.5-0.5c23-23,52-38.5,83.2-45.2l3.5-3.9c-44.4,0-87.2,17.6-118.7,49.1l-0.5,0.5l66.5,9.5
		l3.6-4.1L145.8,231.2z"/>
</g>
<g>
	<path class="st4" d="M343.4,200.6c-9.7-9.7-9.7-25.5,0-35.2c0.5-0.5,1.1-0.9,1.6-1.3c-9.8-8.3-24.4-7.9-33.6,1.3
		c-9.7,9.7-9.7,25.5,0,35.2c9.2,9.2,23.8,9.6,33.6,1.3C344.5,201.5,343.9,201.1,343.4,200.6z"/>
</g>
<g>
	<path class="st5" d="M162,333.6c2.5-2.5,5.3-4.3,8.2-5.9c-12.9-6.9-29.3-5-40.2,5.9C116.7,346.9,96,416,96,416s17-5.1,35.7-11.8
		C138.3,383.8,152.1,343.5,162,333.6z"/>
</g>
<g>
	<path class="st5" d="M195.2,257.7l66.9-75c37.4-43.7,95.6-76.9,153.8-84.8c0-0.6,0-1.2,0-1.9c-67.5-1.6-140.2,35.4-184.1,86.7
		l-66.9,75l89.3,89.3l16-14.3L195.2,257.7z"/>
</g>
<g>
	<path d="M254.3,357.7c-2.7,0-5.5-1.1-7.5-3.1L227.1,335l15.1-15.1l12.5,12.5l67.5-60.2c48.3-41.3,80.8-106.5,83.1-165.3
		c-58.9,2.3-124,34.7-165.2,82.9l-60.4,67.6l44.5,44.5L209,316.9l-51.6-51.6c-4-4-4.2-10.4-0.4-14.6l66.9-75
		c47.4-55.5,124.3-91.8,192.3-90.3c5.7,0.1,10.3,4.7,10.4,10.4c1.6,67.5-34.8,144.9-90.4,192.4L261.4,355
		C259.3,356.8,256.8,357.7,254.3,357.7L254.3,357.7z"/>
</g>
<g>
	<path d="M280.9,408.6c-1.1,0-2.1-0.2-3.1-0.5c-3.8-1.3-6.9-4.4-7.4-8.4l-9.5-66.5l21.1-3l6.2,43.5c20.7-27.3,31.7-60.1,31.7-94.6
		h21.3c0,47.7-18.6,92.5-52.3,126.2C286.8,407.3,283.8,408.6,280.9,408.6L280.9,408.6z"/>
</g>
<g>
	<path d="M178.8,251.2l-66.5-9.5c-4-0.6-7.4-3.4-8.6-7.2c-1.3-3.9-0.2-8.1,2.6-10.9c34.1-34.1,79-52.7,126.7-52.7v21.3
		c-34.7,0-67.6,11.1-94.7,31.7l43.6,6.2L178.8,251.2z"/>
</g>
<g>
	<path d="M329,218.5c-9.1,0-18.2-3.5-25.1-10.4c-13.9-13.9-13.9-36.4,0-50.3c13.9-13.9,36.4-13.9,50.3,0c13.9,13.9,13.9,36.4,0,50.3
		C347.2,215.1,338.1,218.5,329,218.5z M329,168.8c-3.6,0-7.3,1.4-10.1,4.2c-5.5,5.5-5.5,14.6,0,20.1c5.5,5.5,14.6,5.5,20.1,0
		c5.5-5.5,5.5-14.6,0-20.1C336.3,170.2,332.6,168.8,329,168.8L329,168.8z"/>
</g>
<g>
	<path d="M96,426.7c-2.8,0-5.5-1.1-7.5-3.1c-2.8-2.8-3.8-6.8-2.7-10.6c3.6-12,22.2-72.4,36.7-86.9c17-17,46.5-16.9,63.5,0
		c8.5,8.5,13.1,19.8,13.1,31.7s-4.7,23.3-13.1,31.7c-14.5,14.5-75,33.1-86.9,36.7C98.1,426.5,97,426.7,96,426.7L96,426.7z
		 M154.2,334.2c-6,0-12.1,2.3-16.7,6.9c-6.2,6.2-16.9,33.6-25.2,58.5c24.9-8.3,52.3-19,58.5-25.2c9.2-9.2,9.2-24.1,0-33.3
		C166.3,336.5,160.3,334.2,154.2,334.2z"/>
</g>
</svg>
