<?xml version="1.0" encoding="utf-8"?>
<!-- Generator: Adobe Illustrator 24.3.0, SVG Export Plug-In . SVG Version: 6.00 Build 0)  -->
<svg version="1.1" id="line" xmlns="http://www.w3.org/2000/svg" xmlns:xlink="http://www.w3.org/1999/xlink" x="0px" y="0px"
	 viewBox="0 0 512 512" style="enable-background:new 0 0 512 512;" xml:space="preserve">
<style type="text/css">
	.st0{fill:#EFEFEF;}
	.st1{fill:#A4AFC1;}
	.st2{fill:#EE4D4E;}
	.st3{fill:#F3F3F1;}
	.st4{fill:#CC0000;}
	.st5{fill:#D5DBE1;}
	.st6{fill:#191D4C;}
</style>
<g>
	<path class="st0" d="M392.9,59.3c-98.4,0-165.9-51-213.3-51s-147,27.2-147,245.3s133.9,250.1,186.1,250.1
		C462.8,503.7,567.1,59.3,392.9,59.3z"/>
</g>
<g>
	<path class="st1" d="M136.9,46.2h14.2v28.4h-14.2V46.2z"/>
</g>
<g>
	<path class="st1" d="M87.1,88.9h28.4v14.2H87.1V88.9z"/>
</g>
<g>
	<path class="st1" d="M168.9,88.9h28.4v14.2h-28.4V88.9z"/>
</g>
<g>
	<path class="st2" d="M280.9,373.3c0,0,3.5,25.1,21,42.7h0.3h-92.4c17.8-17.8,21-42.7,21-42.7H280.9z"/>
</g>
<g>
	<path class="st3" d="M215.3,271.9c-7.7,7.7-47.7,19.7-47.7,19.7s12-40,19.7-47.7c7.7-7.7,20.3-7.7,28,0
		C223.1,251.6,223.1,264.1,215.3,271.9z"/>
</g>
<g>
	<path class="st2" d="M401.8,152.9h-7.1h-50.2c-8.8,17.7-30.9,43.4-30.9,43.4c-0.5,25.6-1.9,57.8-20.1,81L177.8,161.7
		c4.6-3.6,9.6-6.4,14.8-8.8h-46.8h-35.6c-7.9,0-14.2,6.4-14.2,14.2v156.4h320V167.1C416,159.3,409.6,152.9,401.8,152.9z
		 M215.3,271.9c-7.7,7.7-47.7,19.7-47.7,19.7s12-40,19.7-47.7c7.7-7.7,20.3-7.7,28,0C223.1,251.6,223.1,264.1,215.3,271.9z"/>
</g>
<g>
	<path class="st3" d="M401.8,375.1H110.2c-7.9,0-14.2-6.4-14.2-14.2v-35.6h320v35.6C416,368.7,409.6,375.1,401.8,375.1z"/>
</g>
<g>
	<path class="st3" d="M370.3,96.2c0.1-2.9-1.1-5.7-3.1-7.7c-2.1-2-5.1-3.2-7.8-3.1c-35.5,0.7-74.9,18.3-104,45.7
		c-28.4,0.6-60,3.3-84.2,22.3c-2.4,1.9-3.9,4.7-4.1,7.8c-0.2,3.1,1,6,3.1,8.2l115.6,115.6c2,2,4.7,3.1,7.6,3.1c0.2,0,0.4,0,0.6,0
		c3-0.2,5.9-1.7,7.8-4.1c18.7-23.9,21.5-55.1,22.2-83.2C351.8,171.4,369.6,131.9,370.3,96.2L370.3,96.2z"/>
</g>
<g>
	<path class="st4" d="M230.8,373.3c0,0-3.3,24.9-21,42.7h32c17.8-17.8,21-42.7,21-42.7H230.8z"/>
</g>
<g>
	<path class="st4" d="M142.2,152.9h-32c-7.9,0-14.2,6.4-14.2,14.2v156.4h32V167.1C128,159.3,134.4,152.9,142.2,152.9z"/>
</g>
<g>
	<path class="st5" d="M216.3,245.3c-0.4-0.5-0.6-1.1-1-1.5c-7.7-7.7-20.3-7.7-28,0c-7.7,7.7-19.7,47.7-19.7,47.7s19.7-5.9,34.1-12.1
		C205.6,268,211.5,251.8,216.3,245.3L216.3,245.3z"/>
</g>
<g>
	<path class="st5" d="M126.2,360.9v-35.6H96v35.6c0,7.9,6.4,14.2,14.2,14.2h30.2C132.6,375.1,126.2,368.7,126.2,360.9z"/>
</g>
<g>
	<path class="st5" d="M234.3,169.3c-2.2-2.2-3.3-5.1-3.1-8.2c0.2-3,1.7-5.9,4.1-7.8c24.1-18.9,55.8-21.6,84.2-22.3
		c14.9-14,32.5-25.4,50.8-33.4c0-0.5,0.1-1,0.1-1.5c0.1-2.9-1.1-5.7-3.1-7.7c-2.1-2-5.1-3.2-7.8-3.1c-35.5,0.7-74.9,18.3-104,45.7
		c-28.4,0.6-60,3.3-84.2,22.3c-2.4,1.9-3.9,4.7-4.1,7.8c-0.2,3.1,1,6,3.1,8.2l115.6,115.6c2,2,4.7,3.1,7.6,3.1c0.2,0,0.4,0,0.6,0
		c3-0.2,5.9-1.7,7.8-4.1c7.5-9.5,12.3-20.3,15.6-31.5L234.3,169.3z"/>
</g>
<g>
	<path class="st6" d="M401.8,384H110.2c-13.7,0-24.9-11.2-24.9-24.9v-192c0-13.7,11.2-24.9,24.9-24.9h35.6v21.3h-35.6
		c-2,0-3.6,1.6-3.6,3.6v192c0,2,1.6,3.6,3.6,3.6h291.6c2,0,3.6-1.6,3.6-3.6v-192c0-2-1.6-3.6-3.6-3.6h-7.1v-21.3h7.1
		c13.7,0,24.9,11.2,24.9,24.9v192C426.7,372.8,415.5,384,401.8,384z"/>
</g>
<g>
	<path class="st6" d="M96,312.9h320v21.3H96V312.9z"/>
</g>
<g>
	<path class="st6" d="M302.2,426.7h-92.4c-4.3,0-8.2-2.6-9.9-6.6s-0.7-8.6,2.3-11.6c14.8-14.8,18-36.3,18-36.5l21.1,2.8
		c-0.1,0.8-2.1,15.2-10.6,30.6h50.1c-8.4-15.4-10.5-29.7-10.6-30.5l21.1-3c0,0.2,3.1,20.7,16.8,35.4c2.8,1.9,4.6,5.1,4.6,8.8
		C312.9,421.9,308.1,426.7,302.2,426.7L302.2,426.7z"/>
</g>
<g>
	<path class="st6" d="M260.5,255c-2.7,0-5.5-1.1-7.5-3.1l-49.2-49.2c-4-4-4.2-10.5-0.4-14.7l40.3-44.8
		c29.7-34.3,75.2-57.1,115.7-57.9c2.7-0.1,5.7,1.1,7.7,3.1c2,2,3.2,4.8,3.1,7.7c-0.8,40.5-23.5,86-58,115.9l-44.6,40.2
		C265.6,254.1,263.1,255,260.5,255L260.5,255z M226,194.7l34.9,34.9l37.2-33.5c26.4-22.9,45.4-57.1,49.8-88.4
		c-31.3,4.4-65.5,23.4-88.3,49.7L226,194.7z"/>
</g>
<g>
	<path class="st6" d="M293.4,288c-2.8,0-5.6-1.1-7.6-3.1L253,251.8l15.1-15l23.5,23.6c9.5-18.6,10.8-41.8,11.2-64.3l21.3,0.4
		c-0.5,29.2-2.7,62.4-22.3,87.4c-1.9,2.4-4.7,3.9-7.8,4.1C293.9,288,293.6,288,293.4,288L293.4,288z"/>
</g>
<g>
	<path class="st6" d="M203.3,202.2l-33.1-32.9c-2.2-2.2-3.3-5.1-3.1-8.2c0.2-3,1.7-5.9,4.1-7.8c25.1-19.6,58.3-21.8,87.4-22.3
		l0.4,21.3c-22.5,0.4-45.7,1.7-64.3,11.2l23.6,23.5L203.3,202.2z"/>
</g>
<g>
	<path class="st6" d="M167.6,302.2c-2.8,0-5.5-1.1-7.5-3.1c-2.8-2.8-3.8-6.8-2.7-10.6c3.8-12.8,13.7-43.5,22.4-52.2
		c11.9-11.9,31.2-11.9,43.1,0c11.9,11.9,11.9,31.2,0,43.1c-8.7,8.7-39.4,18.5-52.2,22.4C169.7,302.1,168.6,302.2,167.6,302.2z
		 M201.3,248.7c-2.3,0-4.7,0.9-6.5,2.7c-2.3,2.4-6.4,12.1-10.5,23.4c11.3-4.1,20.9-8.2,23.4-10.5c3.5-3.6,3.5-9.3,0-12.9
		C206,249.6,203.7,248.7,201.3,248.7z"/>
</g>
<g>
	<path class="st6" d="M28.4,405.3h455.1v21.3H28.4V405.3z"/>
</g>
</svg>
