<?xml version="1.0"?>
<svg xmlns="http://www.w3.org/2000/svg" xmlns:xlink="http://www.w3.org/1999/xlink" xmlns:svgjs="http://svgjs.com/svgjs" version="1.1" width="512" height="512" x="0" y="0" viewBox="0 0 36 36" style="enable-background:new 0 0 512 512" xml:space="preserve" class=""><g><path xmlns="http://www.w3.org/2000/svg" d="m8.114 5.564c-1.805 6.677-6.504 10.327-7.374 13.545s-.847 10.475 13.955 14.477 19.432-4.501 20.388-8.041c4.481-16.572-23.772-31.807-26.969-19.981z" fill="#efefef" data-original="#efefef" style=""/><circle xmlns="http://www.w3.org/2000/svg" cx="15" cy="11" fill="#f3f3f1" r="4.25" data-original="#f3f3f1" style=""/><path xmlns="http://www.w3.org/2000/svg" d="m13 11c0-1.955 1.328-3.585 3.125-4.08-.361-.1-.733-.17-1.125-.17-2.347 0-4.25 1.903-4.25 4.25s1.903 4.25 4.25 4.25c.392 0 .764-.07 1.125-.17-1.797-.495-3.125-2.125-3.125-4.08z" fill="#d5dbe1" data-original="#d5dbe1" style=""/><path xmlns="http://www.w3.org/2000/svg" d="m20.39 18.75h-1.14-7.36-1.14c-2.209 0-4 1.791-4 4v3.5h8.39.86 8.39v-3.5c0-2.209-1.791-4-4-4z" fill="#f3f3f1" data-original="#f3f3f1" style=""/><path xmlns="http://www.w3.org/2000/svg" d="m13 18.75h-1.11-1.14c-2.209 0-4 1.791-4 4v3.5h2.25v-3.5c0-2.209 1.791-4 4-4z" fill="#d5dbe1" data-original="#d5dbe1" style=""/><g xmlns="http://www.w3.org/2000/svg" fill="#a4afc1"><path d="m26.555 3.967h1v2h-1z" transform="matrix(.707 -.707 .707 .707 4.412 20.586)" fill="#a4afc1" data-original="#a4afc1" style=""/><path d="m30.621 8.033h1v2h-1z" transform="matrix(.707 -.707 .707 .707 2.728 24.652)" fill="#a4afc1" data-original="#a4afc1" style=""/><path d="m25.878 8.533h2v1h-2z" transform="matrix(.707 -.707 .707 .707 1.485 21.652)" fill="#a4afc1" data-original="#a4afc1" style=""/><path d="m29.944 4.467h2v1h-2z" transform="matrix(.707 -.707 .707 .707 5.551 23.336)" fill="#a4afc1" data-original="#a4afc1" style=""/><path d="m9.875 32.5c-.827 0-1.5-.673-1.5-1.5s.673-1.5 1.5-1.5 1.5.673 1.5 1.5-.673 1.5-1.5 1.5zm0-2c-.276 0-.5.224-.5.5s.224.5.5.5.5-.224.5-.5-.224-.5-.5-.5z" fill="#a4afc1" data-original="#a4afc1" style=""/></g><circle xmlns="http://www.w3.org/2000/svg" cx="23" cy="24.5" fill="#ee4d4e" r="2.75" data-original="#2fdf84" style="" class=""/><path xmlns="http://www.w3.org/2000/svg" d="m22.5 24.5c0-1.117.669-2.074 1.625-2.504-.344-.155-.723-.246-1.125-.246-1.519 0-2.75 1.231-2.75 2.75s1.231 2.75 2.75 2.75c.402 0 .781-.091 1.125-.246-.956-.43-1.625-1.387-1.625-2.504z" fill="#cc0000" data-original="#00b871" style="" class=""/><path xmlns="http://www.w3.org/2000/svg" d="m23 28c-1.93 0-3.5-1.57-3.5-3.5s1.57-3.5 3.5-3.5 3.5 1.57 3.5 3.5-1.57 3.5-3.5 3.5zm0-5.5c-1.103 0-2 .897-2 2s.897 2 2 2 2-.897 2-2-.897-2-2-2z" fill="#000000" data-original="#000000" style=""/><path xmlns="http://www.w3.org/2000/svg" d="m22.25 27.25h1.5v2h-1.5z" fill="#000000" data-original="#000000" style=""/><path xmlns="http://www.w3.org/2000/svg" d="m22.25 19.75h1.5v2h-1.5z" fill="#000000" data-original="#000000" style=""/><path xmlns="http://www.w3.org/2000/svg" d="m25.246 21.88h1.998v1.5h-1.998z" transform="matrix(.866 -.5 .5 .866 -7.803 16.176)" fill="#000000" data-original="#000000" style=""/><path xmlns="http://www.w3.org/2000/svg" d="m18.756 25.62h1.998v1.5h-1.998z" transform="matrix(.866 -.5 .5 .866 -10.547 13.43)" fill="#000000" data-original="#000000" style=""/><path xmlns="http://www.w3.org/2000/svg" d="m19.005 21.631h1.5v1.998h-1.5z" transform="matrix(.5 -.866 .866 .5 -9.724 28.408)" fill="#000000" data-original="#000000" style=""/><path xmlns="http://www.w3.org/2000/svg" d="m25.495 25.371h1.5v1.998h-1.5z" transform="matrix(.5 -.866 .866 .5 -9.72 35.895)" fill="#000000" data-original="#000000" style=""/><path xmlns="http://www.w3.org/2000/svg" d="m15 16c-2.757 0-5-2.243-5-5s2.243-5 5-5 5 2.243 5 5-2.243 5-5 5zm0-8.5c-1.93 0-3.5 1.57-3.5 3.5s1.57 3.5 3.5 3.5 3.5-1.57 3.5-3.5-1.57-3.5-3.5-3.5z" fill="#000000" data-original="#000000" style=""/><path xmlns="http://www.w3.org/2000/svg" d="m16 27h-9.25c-.414 0-.75-.336-.75-.75v-3.5c0-2.619 2.131-4.75 4.75-4.75h8.5v1.5h-8.5c-1.792 0-3.25 1.458-3.25 3.25v2.75h8.5z" fill="#000000" data-original="#000000" style=""/></g></svg>
