<?xml version="1.0" encoding="utf-8"?>
<!-- Generator: Adobe Illustrator 24.3.0, SVG Export Plug-In . SVG Version: 6.00 Build 0)  -->
<svg version="1.1" id="_x31__x2C_5" xmlns="http://www.w3.org/2000/svg" xmlns:xlink="http://www.w3.org/1999/xlink" x="0px"
	 y="0px" viewBox="0 0 512 512" style="enable-background:new 0 0 512 512;" xml:space="preserve">
<style type="text/css">
	.st0{fill:#EFEFEF;}
	.st1{fill:#A4AFC1;}
	.st2{fill:#F3F3F1;}
	.st3{fill:#EE4D4E;}
	.st4{fill:#CC0000;}
	.st5{fill:#D5DBE1;}
</style>
<path class="st0" d="M392.9,452.7c-98.4,0-165.9,51-213.3,51s-147-27.2-147-245.3S166.5,8.3,218.6,8.3
	C462.8,8.3,567.1,452.7,392.9,452.7z"/>
<g>
	<path class="st1" d="M84.9,47.2L105,27.1l10.1,10.1L95,57.3L84.9,47.2z"/>
	<path class="st1" d="M27.1,105l20.1-20.1L57.3,95l-20.1,20.1L27.1,105z"/>
	<path class="st1" d="M29.6,37.2l10.1-10.1l20.1,20.1L49.7,57.3L29.6,37.2z"/>
</g>
<path class="st2" d="M387.6,387.6H124.4c-15.7,0-28.4-12.7-28.4-28.4V145.8h320v213.3C416,374.8,403.3,387.6,387.6,387.6z"/>
<path class="st3" d="M96,145.8h320v-21.3c0-15.7-12.7-28.4-28.4-28.4H124.4C108.7,96,96,108.7,96,124.4V145.8z"/>
<path class="st2" d="M96,394.7c0,11.8,9.6,21.3,21.3,21.3h92.4c11.8,0,21.3-9.6,21.3-21.3v-192c0-11.8-9.6-21.3-21.3-21.3h-92.4
	c-11.8,0-21.3,9.6-21.3,21.3V394.7z"/>
<path class="st3" d="M209.8,181.3c-7.9,0-14.2,6.4-14.2,14.2s-6.4,14.2-14.2,14.2h-35.6c-7.9,0-14.2-6.4-14.2-14.2
	s-6.4-14.2-14.2-14.2H209.8z"/>
<path class="st4" d="M156.4,96h-32C108.7,96,96,108.7,96,124.4v21.3h32v-21.3C128,108.7,140.7,96,156.4,96z"/>
<path class="st4" d="M163.6,195.6c0-7.9-6.4-14.2-14.2-14.2h-32c7.9,0,14.2,6.4,14.2,14.2s6.4,14.2,14.2,14.2h32
	C169.9,209.8,163.6,203.4,163.6,195.6z"/>
<path class="st5" d="M128,394.7v-192c0-11.8,9.6-21.3,21.3-21.3h-32c-11.8,0-21.3,9.6-21.3,21.3v192c0,11.8,9.6,21.3,21.3,21.3h32
	C137.6,416,128,406.4,128,394.7z"/>
<path class="st5" d="M128,145.8v32L96,192v-46.2H128z"/>
<path d="M181.3,220.4h-35.6c-13.7,0-24.9-11.2-24.9-24.9c0-2-1.6-3.6-3.6-3.6v-21.3c13.7,0,24.9,11.2,24.9,24.9c0,2,1.6,3.6,3.6,3.6
	h35.6c2,0,3.6-1.6,3.6-3.6c0-13.7,11.2-24.9,24.9-24.9V192c-2,0-3.6,1.6-3.6,3.6C206.2,209.3,195.1,220.4,181.3,220.4z"/>
<path d="M209.8,426.7h-92.4c-17.6,0-32-14.4-32-32v-192c0-17.6,14.4-32,32-32h92.4c17.6,0,32,14.4,32,32v192
	C241.8,412.3,227.4,426.7,209.8,426.7z M117.3,192c-5.9,0-10.7,4.8-10.7,10.7v192c0,5.9,4.8,10.7,10.7,10.7h92.4
	c5.9,0,10.7-4.8,10.7-10.7v-192c0-5.9-4.8-10.7-10.7-10.7H117.3z"/>
<path d="M387.6,398.2H270.2v-21.3h117.3c9.8,0,17.8-8,17.8-17.8V124.4c0-9.8-8-17.8-17.8-17.8H124.4c-9.8,0-17.8,8-17.8,17.8v17.8
	H85.3v-17.8c0-21.6,17.5-39.1,39.1-39.1h263.1c21.6,0,39.1,17.5,39.1,39.1v234.7C426.7,380.7,409.1,398.2,387.6,398.2z"/>
<path d="M241.8,135.1H416v21.3H241.8V135.1z"/>
<path d="M291.1,276.9l53.3-53.3l15.1,15.1L306.2,292L291.1,276.9z"/>
<path d="M341.3,298.7h-46.2c-5.9,0-10.7-4.8-10.7-10.7v-46.2h21.3v35.6h35.6V298.7z"/>
</svg>
