<?xml version="1.0" encoding="utf-8"?>
<!-- Generator: Adobe Illustrator 24.3.0, SVG Export Plug-In . SVG Version: 6.00 Build 0)  -->
<svg version="1.1" id="_x31__x2C_5" xmlns="http://www.w3.org/2000/svg" xmlns:xlink="http://www.w3.org/1999/xlink" x="0px"
	 y="0px" viewBox="0 0 512 512" style="enable-background:new 0 0 512 512;" xml:space="preserve">
<style type="text/css">
	.st0{fill:#EFEFEF;}
	.st1{fill:#A4AFC1;}
	.st2{fill:#F3F3F1;}
	.st3{fill:#EE4D4E;}
	.st4{fill:#CC0000;}
	.st5{fill:#D5DBE1;}
</style>
<path class="st0" d="M496.4,289.5c-53.8-82.4-48.1-166.8-74-206.5C396.5,43.3,319.2-25.1,136.6,94.1S0.5,343,29,386.7
	C162.6,591.1,591.7,435.4,496.4,289.5z"/>
<path class="st1" d="M134.5,398.2c-11.8,0-21.3-9.6-21.3-21.3s9.6-21.3,21.3-21.3c11.8,0,21.3,9.6,21.3,21.3
	S146.3,398.2,134.5,398.2z M134.5,369.8c-3.9,0-7.1,3.2-7.1,7.1s3.2,7.1,7.1,7.1c3.9,0,7.1-3.2,7.1-7.1S138.5,369.8,134.5,369.8z"/>
<path class="st2" d="M344.9,152.9H167.1c-7.9,0-14.2,6.4-14.2,14.2v35.6c0,7.9,6.4,14.2,14.2,14.2H192h3.6v-21.3h120.9v21.3h3.6
	h24.9c7.9,0,14.2-6.4,14.2-14.2v-35.6C359.1,159.3,352.7,152.9,344.9,152.9z"/>
<path class="st3" d="M288,302.2h-64c-15.7,0-28.4-12.7-28.4-28.4v-78.2h120.9v78.2C316.4,289.5,303.7,302.2,288,302.2z"/>
<path class="st2" d="M387.6,110.2H124.4c-15.6,0-28.4,12.8-28.4,28.4v92.4c0,15.6,12.8,28.4,28.4,28.4H192h3.6v-64h120.9v64h3.6
	h67.6c15.6,0,28.4-12.8,28.4-28.4v-92.4C416,123,403.2,110.2,387.6,110.2z"/>
<path class="st2" d="M344.9,152.9H167.1c-7.9,0-14.2,6.4-14.2,14.2v35.6c0,7.9,6.4,14.2,14.2,14.2H192h3.6v-21.3h120.9v21.3h3.6
	h24.9c7.9,0,14.2-6.4,14.2-14.2v-35.6C359.1,159.3,352.7,152.9,344.9,152.9z"/>
<path class="st4" d="M224,273.8v-78.2h-28.4v78.2c0,15.7,12.7,28.4,28.4,28.4h28.4C236.7,302.2,224,289.5,224,273.8z"/>
<path class="st5" d="M181.3,202.7v-35.6c0-7.9,6.4-14.2,14.2-14.2h-28.4c-7.9,0-14.2,6.4-14.2,14.2v35.6c0,7.9,6.4,14.2,14.2,14.2
	H192h3.6C187.7,216.9,181.3,210.5,181.3,202.7z"/>
<path class="st5" d="M124.4,231.1v-92.4c0-15.6,12.8-28.4,28.4-28.4h-28.4c-15.6,0-28.4,12.8-28.4,28.4v92.4
	c0,15.6,12.8,28.4,28.4,28.4h28.4C137.2,259.6,124.4,246.8,124.4,231.1z"/>
<path d="M387.6,270.2H320v-21.3h67.6c9.8,0,17.8-8,17.8-17.8v-92.4c0-9.8-8-17.8-17.8-17.8H124.4c-9.8,0-17.8,8-17.8,17.8v92.4
	c0,9.8,8,17.8,17.8,17.8H192v21.3h-67.6c-21.6,0-39.1-17.5-39.1-39.1v-92.4c0-21.6,17.5-39.1,39.1-39.1h263.1
	c21.6,0,39.1,17.5,39.1,39.1v92.4C426.7,252.7,409.1,270.2,387.6,270.2z"/>
<path d="M288,312.9h-64c-21.6,0-39.1-17.5-39.1-39.1v-78.2c0-5.9,4.8-10.7,10.7-10.7h120.9c5.9,0,10.7,4.8,10.7,10.7v78.2
	C327.1,295.4,309.6,312.9,288,312.9z M206.2,206.2v67.6c0,9.8,8,17.8,17.8,17.8h64c9.8,0,17.8-8,17.8-17.8v-67.6H206.2z"/>
<path d="M344.9,227.6H320v-21.3h24.9c2,0,3.6-1.6,3.6-3.6v-35.6c0-2-1.6-3.6-3.6-3.6H167.1c-2,0-3.6,1.6-3.6,3.6v35.6
	c0,2,1.6,3.6,3.6,3.6H192v21.3h-24.9c-13.7,0-24.9-11.2-24.9-24.9v-35.6c0-13.7,11.2-24.9,24.9-24.9h177.8
	c13.7,0,24.9,11.2,24.9,24.9v35.6C369.8,216.4,358.6,227.6,344.9,227.6z"/>
<path d="M327.1,412.4h-42.7c-21.6,0-39.1-17.5-39.1-39.1v-78.2h21.3v78.2c0,9.8,8,17.8,17.8,17.8h42.7V412.4z"/>
</svg>
