<?xml version="1.0" encoding="utf-8"?>
<!-- Generator: Adobe Illustrator 24.3.0, SVG Export Plug-In . SVG Version: 6.00 Build 0)  -->
<svg version="1.1" id="_x31__x2C_5" xmlns="http://www.w3.org/2000/svg" xmlns:xlink="http://www.w3.org/1999/xlink" x="0px"
	 y="0px" viewBox="0 0 512 512" style="enable-background:new 0 0 512 512;" xml:space="preserve">
<style type="text/css">
	.st0{fill:#EFEFEF;}
	.st1{fill:#A4AFC1;}
	.st2{fill:#F3F3F1;}
	.st3{fill:#EE4D4E;}
	.st4{fill:#CC0000;}
	.st5{fill:#D5DBE1;}
</style>
<path class="st0" d="M119.1,452.7c98.4,0,165.9,51,213.3,51s147-27.2,147-245.3S345.5,8.3,293.4,8.3
	C49.2,8.3-55.1,452.7,119.1,452.7L119.1,452.7z"/>
<g>
	<path class="st1" d="M393.1,37.2l10.1-10.1l20.1,20.1l-10.1,10.1L393.1,37.2z"/>
	<path class="st1" d="M451,95L461,85l20.1,20.1l-10.1,10.1L451,95z"/>
	<path class="st1" d="M448.4,47.3l20.1-20.1l10.1,10.1l-20.1,20.1L448.4,47.3z"/>
</g>
<path class="st2" d="M348.4,188.4H135.1c-21.6,0-39.1-17.5-39.1-39.1s17.5-39.1,39.1-39.1h213.3c21.6,0,39.1,17.5,39.1,39.1
	S370,188.4,348.4,188.4z"/>
<path class="st3" d="M348.4,266.7H135.1c-21.6,0-39.1-17.5-39.1-39.1s17.5-39.1,39.1-39.1h213.3c21.6,0,39.1,17.5,39.1,39.1
	S370,266.7,348.4,266.7z"/>
<path class="st2" d="M348.4,344.9H135.1c-21.6,0-39.1-17.5-39.1-39.1c0-21.6,17.5-39.1,39.1-39.1h213.3c21.6,0,39.1,17.5,39.1,39.1
	C387.6,327.4,370,344.9,348.4,344.9z"/>
<path class="st3" d="M401.8,416h-78.2c-7.9,0-14.2-6.4-14.2-14.2V352c0-7.9,6.4-14.2,14.2-14.2h78.2c7.9,0,14.2,6.4,14.2,14.2v49.8
	C416,409.6,409.6,416,401.8,416z"/>
<path class="st4" d="M341.3,401.8V352c0-7.9,6.4-14.2,14.2-14.2h-32c-7.9,0-14.2,6.4-14.2,14.2v49.8c0,7.9,6.4,14.2,14.2,14.2h32
	C347.7,416,341.3,409.6,341.3,401.8z"/>
<path class="st4" d="M128,227.6c0-21.6,17.5-39.1,39.1-39.1h-32c-21.6,0-39.1,17.5-39.1,39.1s17.5,39.1,39.1,39.1h32
	C145.5,266.7,128,249.2,128,227.6z"/>
<path class="st5" d="M128,149.3c0-21.6,17.5-39.1,39.1-39.1h-32c-21.6,0-39.1,17.5-39.1,39.1s17.5,39.1,39.1,39.1h32
	C145.5,188.4,128,170.9,128,149.3z"/>
<path class="st5" d="M128,305.8c0-21.6,17.5-39.1,39.1-39.1h-32c-21.6,0-39.1,17.5-39.1,39.1c0,21.6,17.5,39.1,39.1,39.1h32
	C145.5,344.9,128,327.4,128,305.8z"/>
<path d="M348.4,199.1H135.1c-27.4,0-49.8-22.3-49.8-49.8s22.3-49.8,49.8-49.8h213.3c27.4,0,49.8,22.3,49.8,49.8
	S375.9,199.1,348.4,199.1z M135.1,120.9c-15.7,0-28.4,12.8-28.4,28.4s12.8,28.4,28.4,28.4h213.3c15.7,0,28.4-12.8,28.4-28.4
	s-12.8-28.4-28.4-28.4H135.1z"/>
<circle cx="156.4" cy="149.3" r="14.2"/>
<circle cx="213.3" cy="149.3" r="14.2"/>
<path d="M302.2,277.3H135.1c-27.4,0-49.8-22.3-49.8-49.8c0-13.2,5.4-26,14.7-35.2c9-9.2,21.8-14.6,35.1-14.6h213.3
	c27.4,0,49.8,22.3,49.8,49.8c0,4.6-0.7,9.3-2,14l-20.5-5.7c0.8-2.8,1.2-5.5,1.2-8.2c0-15.7-12.8-28.4-28.4-28.4H135.1
	c-7.6,0-14.7,3-20,8.3c-5.5,5.4-8.5,12.5-8.5,20.1c0,15.7,12.8,28.4,28.4,28.4h167.1V277.3z"/>
<circle cx="156.4" cy="227.6" r="14.2"/>
<circle cx="213.3" cy="227.6" r="14.2"/>
<path d="M259.6,355.6H135.1c-27.4,0-49.8-22.3-49.8-49.8c0-13.2,5.4-26,14.7-35.2c9-9.2,21.8-14.6,35.1-14.6h158v21.3h-158
	c-7.6,0-14.7,3-20,8.3c-5.5,5.4-8.5,12.5-8.5,20.1c0,15.7,12.8,28.4,28.4,28.4h124.4V355.6z"/>
<circle cx="156.4" cy="305.8" r="14.2"/>
<circle cx="213.3" cy="305.8" r="14.2"/>
<path d="M401.8,426.7h-78.2c-13.7,0-24.9-11.2-24.9-24.9V352c0-13.7,11.2-24.9,24.9-24.9h78.2c13.7,0,24.9,11.2,24.9,24.9v49.8
	C426.7,415.5,415.5,426.7,401.8,426.7z M323.6,348.4c-2,0-3.6,1.6-3.6,3.6v49.8c0,2,1.6,3.6,3.6,3.6h78.2c2,0,3.6-1.6,3.6-3.6V352
	c0-2-1.6-3.6-3.6-3.6H323.6z"/>
<path d="M398.2,337.8h-21.3v-32c0-7.9-6.4-14.2-14.2-14.2c-7.8,0-14.2,6.4-14.2,14.2v32h-21.3v-32c0-19.6,16-35.6,35.6-35.6
	c19.6,0,35.6,15.9,35.6,35.6V337.8z"/>
</svg>
