<?xml version="1.0" encoding="utf-8"?>
<!-- Generator: Adobe Illustrator 24.3.0, SVG Export Plug-In . SVG Version: 6.00 Build 0)  -->
<svg version="1.1" id="Layer_1" xmlns="http://www.w3.org/2000/svg" xmlns:xlink="http://www.w3.org/1999/xlink" x="0px" y="0px"
	 viewBox="0 0 512 512" style="enable-background:new 0 0 512 512;" xml:space="preserve">
<style type="text/css">
	.st0{fill:#EFEFEF;}
	.st1{fill:#F3F3F1;}
	.st2{fill:#EE4D4E;}
	.st3{fill:#D5DBE1;}
	.st4{fill:#CC0000;}
	.st5{fill:#A4AFC1;}
</style>
<g id="bg">
	<g>
		<path class="st0" d="M109.2,86.2c-25.7,95-92.5,146.9-104.9,192.6s-12,149,198.5,205.9s276.4-64,290-114.4
			C556.5,134.7,154.7-81.9,109.2,86.2L109.2,86.2z"/>
	</g>
</g>
<g id="color">
	<g>
		<path class="st1" d="M416,124.4v263.1c0,15.6-12.8,28.4-28.4,28.4H202.7V309.3H96V124.4c0-15.6,12.8-28.4,28.4-28.4h263.1
			C403.2,96,416,108.8,416,124.4z"/>
	</g>
	<g>
		<path class="st2" d="M202.7,309.3V416h-78.2c-15.6,0-28.4-12.8-28.4-28.4v-78.2H202.7z"/>
	</g>
	<g>
		<g>
			<path class="st3" d="M160,96h-35.6C108.8,96,96,108.8,96,124.4v184.9h35.6V124.4C131.6,108.8,144.4,96,160,96z"/>
		</g>
	</g>
	<g>
		<path class="st4" d="M131.6,387.6v-78.2H96v78.2c0,15.6,12.8,28.4,28.4,28.4H160C144.4,416,131.6,403.2,131.6,387.6z"/>
	</g>
	<g>
		<g>
			<path class="st5" d="M383.9,51.4l10.1-10.1L414,61.5L404,71.5L383.9,51.4z"/>
		</g>
		<g>
			<path class="st5" d="M441.7,109.3l10.1-10.1l20.1,20.1l-10.1,10.1L441.7,109.3z"/>
		</g>
		<g>
			<path class="st5" d="M439.2,61.5l20.1-20.1l10.1,10.1l-20.1,20.1L439.2,61.5z"/>
		</g>
	</g>
</g>
<g id="regular">
	<g>
		<path d="M387.6,426.7H124.4c-21.6,0-39.1-17.5-39.1-39.1V124.4c0-21.6,17.5-39.1,39.1-39.1h263.1c21.6,0,39.1,17.5,39.1,39.1
			v263.1C426.7,409.1,409.1,426.7,387.6,426.7z M124.4,106.7c-9.8,0-17.8,8-17.8,17.8v263.1c0,9.8,8,17.8,17.8,17.8h263.1
			c9.8,0,17.8-8,17.8-17.8V124.4c0-9.8-8-17.8-17.8-17.8H124.4z"/>
	</g>
	<g>
		<path d="M369.8,245.3h-21.3v-81.8h-81.8v-21.3h92.4c5.9,0,10.7,4.8,10.7,10.7V245.3z"/>
	</g>
	<g>
		<path d="M230.6,266.2l120.9-120.9l15.1,15.1L245.7,281.3L230.6,266.2z"/>
	</g>
	<g>
		<path d="M213.3,416H192v-96H96v-21.3h106.7c5.9,0,10.7,4.8,10.7,10.7V416z"/>
	</g>
</g>
</svg>
