<?xml version="1.0" encoding="utf-8"?>
<!-- Generator: Adobe Illustrator 24.3.0, SVG Export Plug-In . SVG Version: 6.00 Build 0)  -->
<svg version="1.1" id="_x31__x2C_5" xmlns="http://www.w3.org/2000/svg" xmlns:xlink="http://www.w3.org/1999/xlink" x="0px"
	 y="0px" viewBox="0 0 512 512" style="enable-background:new 0 0 512 512;" xml:space="preserve">
<style type="text/css">
	.st0{fill:#EFEFEF;}
	.st1{fill:#A4AFC1;}
	.st2{fill:#F3F3F1;}
	.st3{fill:#EE4D4E;}
	.st4{fill:#CC0000;}
	.st5{fill:#D5DBE1;}
</style>
<path class="st0" d="M392.9,59.3c-98.4,0-165.9-51-213.3-51s-147,27.2-147,245.3s133.9,250.1,186.1,250.1
	C462.8,503.7,567.1,59.3,392.9,59.3z"/>
<path class="st1" d="M106.7,71.1c-11.8,0-21.3-9.6-21.3-21.3s9.6-21.3,21.3-21.3S128,38,128,49.8S118.4,71.1,106.7,71.1z
	 M106.7,42.7c-3.9,0-7.1,3.2-7.1,7.1s3.2,7.1,7.1,7.1c3.9,0,7.1-3.2,7.1-7.1S110.6,42.7,106.7,42.7z"/>
<path class="st2" d="M256,416c0,0,131.6-35.6,131.6-161c0-70.1,0-109.2,0-109.2L256,96l-131.6,49.8V255C124.4,380.4,256,416,256,416
	z"/>
<path class="st3" d="M206.2,302.2c-17.7,0-32-14.3-32-32s14.3-32,32-32h0.6c3.4-24.2,24.1-42.7,49.2-42.7c19.9,0,37.1,11.7,45,28.6
	c20.6,1.1,36.8,18.1,36.8,39c0,21.6-17.5,39.1-39.1,39.1H206.2z"/>
<path class="st4" d="M206.2,270.2c0-17.7,14.3-32,32-32h0.6c2.6-18.8,15.8-34,33.3-39.9c-5-1.7-10.4-2.7-16.1-2.7
	c-25.1,0-45.8,18.5-49.2,42.7h-0.6c-17.7,0-32,14.3-32,32s14.3,32,32,32h32C220.5,302.2,206.2,287.9,206.2,270.2L206.2,270.2z"/>
<path class="st5" d="M156.4,255c0-70.1,0-109.2,0-109.2L272,102.1L256,96l-131.6,49.8V255c0,125.5,131.6,161,131.6,161
	s6.4-1.8,16-5.7C237.1,396.3,156.4,353.3,156.4,255z"/>
<path d="M256,426.7c-0.9,0-1.9-0.1-2.8-0.4c-1.4-0.4-139.4-39.2-139.4-171.3V145.8c0-4.4,2.7-8.4,6.9-10L252.2,86
	c2.4-0.9,5.1-0.9,7.6,0l131.6,49.8c4.2,1.6,6.9,5.5,6.9,10V255c0,132.1-138,170.9-139.4,171.3C257.9,426.5,256.9,426.7,256,426.7
	L256,426.7z M135.1,153.1V255c0,106.2,102.7,144,120.9,149.9C275,399,376.9,362.2,376.9,255V153.1L256,107.4L135.1,153.1z"/>
<path d="M298.7,312.9h-92.4c-23.5,0-42.7-19.1-42.7-42.7c0-20.7,14.8-38,34.5-41.9c7.4-25.3,31-43.4,58-43.4
	c21.3,0,41,11.3,51.8,29.3c23.2,4.3,40.6,24.6,40.6,48.9C348.4,290.6,326.1,312.9,298.7,312.9z M256,206.2
	c-19.3,0-36,14.4-38.6,33.5c-0.7,5.3-5.2,9.2-10.6,9.2c-12.3,0-21.9,9.6-21.9,21.3s9.6,21.3,21.3,21.3h92.4
	c15.7,0,28.4-12.8,28.4-28.4c0-15.1-11.7-27.5-26.7-28.3c-3.9-0.2-7.4-2.6-9.1-6.1C285,215,271.1,206.2,256,206.2L256,206.2z"/>
</svg>
