<?xml version="1.0" encoding="utf-8"?>
<!-- Generator: Adobe Illustrator 24.3.0, SVG Export Plug-In . SVG Version: 6.00 Build 0)  -->
<svg version="1.1" id="_x31__x2C_5" xmlns="http://www.w3.org/2000/svg" xmlns:xlink="http://www.w3.org/1999/xlink" x="0px"
	 y="0px" viewBox="0 0 512 512" style="enable-background:new 0 0 512 512;" xml:space="preserve">
<style type="text/css">
	.st0{fill:#2FDF84;}
	.st1{fill:#00B871;}
</style>
<path d="M255.5,0C114.7,0,0,114.6,0,255.5C0,396.3,114.7,511,255.5,511S511,396.3,511,255.5C511,114.5,396.3,0,255.5,0z M25.8,255.5
	c0-33.3,7.1-64.9,19.9-93.4l109.6,300.2C78.6,425,25.8,346.4,25.8,255.5L25.8,255.5z M255.5,485.2c-22.6,0-44.3-3.3-64.9-9.4
	l68.9-200.3l70.6,193.5c0.5,1.1,1,2.2,1.6,3.2C307.9,480.6,282.3,485.2,255.5,485.2L255.5,485.2z M287.1,147.9L287.1,147.9
	c13.8-0.7,26.3-2.2,26.3-2.2c12.4-1.4,10.9-19.7-1.4-19c0,0-37.2,2.9-61.2,2.9c-22.6,0-60.5-2.9-60.5-2.9
	c-12.3-0.7-13.8,18.2-1.4,19c0,0,11.7,1.4,24.1,2.2l35.7,98.1l-50.3,150.7l-83.6-248.8c13.8-0.7,26.3-2.2,26.3-2.2
	c12.4-1.4,10.9-19.7-1.4-19c0,0-37.2,2.9-61.2,2.9c-4.3,0-9.4-0.1-14.8-0.3C104.7,67,175.2,25.8,255.5,25.8
	c59.8,0,114.3,22.9,155.2,60.3c-1-0.1-2-0.2-3-0.2c-22.6,0-38.5,19.7-38.5,40.8c0,18.9,10.9,34.9,22.6,53.9
	c8.8,15.2,19,34.9,19,63.4c0,19.7-7.5,42.4-17.5,74.3l-22.9,76.5L287.1,147.9z M457.1,145.3c17.9,32.8,28.1,70.3,28.1,110.2
	c0,84.8-45.9,158.8-114.3,198.5l0,0l70.2-202.9c13.1-32.8,17.5-58.9,17.5-82.3C458.7,160.4,458.2,152.6,457.1,145.3L457.1,145.3z"/>
<path class="st0" d="M399.9,511c0,0,109.6-48.5,109.6-145.4c0-38.8,0-82,0-82L399.9,250l-109.6,33.6v82
	C290.3,462.5,399.9,511,399.9,511z"/>
<path class="st1" d="M337.3,365.6c0-58.2,0-82,0-82l86.1-26.4l-23.5-7.2l-109.6,33.6v82c0,96.9,109.6,145.4,109.6,145.4
	s9.8-4.4,23.5-13C391.2,477.7,337.3,433.6,337.3,365.6L337.3,365.6z"/>
<path d="M389.5,422.3c-4.2,0-8.1-1.6-11.1-4.6l-47.6-47.6l22.2-22.2l36.1,36.1l67.4-72.6l22.9,21.3L401,417.3
	c-2.9,3.1-6.9,4.9-11.2,5C389.7,422.3,389.6,422.3,389.5,422.3L389.5,422.3z"/>
</svg>
