<?xml version="1.0" encoding="utf-8"?>
<!-- Generator: Adobe Illustrator 24.3.0, SVG Export Plug-In . SVG Version: 6.00 Build 0)  -->
<svg version="1.1" id="_x31_px" xmlns="http://www.w3.org/2000/svg" xmlns:xlink="http://www.w3.org/1999/xlink" x="0px" y="0px"
	 viewBox="0 0 512 512" style="enable-background:new 0 0 512 512;" xml:space="preserve">
<style type="text/css">
	.st0{fill:#EFEFEF;}
	.st1{fill:#A4AFC1;}
	.st2{fill:#EE4D4E;}
	.st3{fill:#F3F3F1;}
	.st4{fill:#CC0000;}
	.st5{fill:#D5DBE1;}
</style>
<path class="st0" d="M59.3,392.9c0-98.4-51-165.9-51-213.3s27.2-147,245.3-147s250.1,133.9,250.1,186.1
	C503.7,462.8,59.3,567.1,59.3,392.9z"/>
<path class="st1" d="M49.8,85.3C38,85.3,28.4,75.8,28.4,64S38,42.7,49.8,42.7S71.1,52.2,71.1,64S61.5,85.3,49.8,85.3z M49.8,56.9
	c-3.9,0-7.1,3.2-7.1,7.1s3.2,7.1,7.1,7.1s7.1-3.2,7.1-7.1S53.7,56.9,49.8,56.9z"/>
<path class="st2" d="M135.1,120.9h-28.4c-7.8,0.1-14.2,6.4-14.2,14.2v170.7c0,7.8,6.4,14.2,14.2,14.2h135.1h135.1
	c7.9,0,14.2-6.4,14.2-14.2V135.1c0-7.8-6.4-14.2-14.2-14.2h-28.4H135.1z"/>
<path class="st3" d="M241.8,320c-29-25.3-59.2-34.6-90.6-31c-8.5,1-16.1-5.4-16.1-13.9V107.9c0-7.1,5.3-13.2,12.4-14.2
	c32.6-4.8,64.1,4.1,94.3,30.4c30.2-26.3,61.7-35.3,94.3-30.4c7.1,1,12.4,7.1,12.4,14.2v169.4v14.2
	C348.4,291.6,276.7,282.7,241.8,320L241.8,320z"/>
<path class="st4" d="M120.9,305.8V135.1c0-7.8,6.4-14.1,14.2-14.2h-28.4c-7.8,0.1-14.2,6.4-14.2,14.2v170.7
	c0,7.8,6.4,14.2,14.2,14.2h28.4C127.3,320,120.9,313.6,120.9,305.8z"/>
<path class="st5" d="M181.3,288.9c-0.6,0.1-1.1,0.1-1.7,0.1c-8.5,1-16.1-5.4-16.1-13.9V107.9c0-7.1,5.3-13.2,12.4-14.2
	c0.7-0.1,1.3-0.1,1.9-0.2c-10-1.3-20.2-1.3-30.4,0.2c-7.1,1-12.4,7.1-12.4,14.2v167.1c0,8.5,7.5,14.9,16.1,13.9
	c10.2-1.2,20.2-0.8,30.2,0.8V288.9z"/>
<path d="M348.4,391.1h-42.7c-3.9,0-7.1-3.2-7.1-7.1s3.2-7.1,7.1-7.1h42.7c3.9,0,7.1,3.2,7.1,7.1S352.4,391.1,348.4,391.1z"/>
<path d="M348.4,426.7H320c-11.8,0-21.3-9.6-21.3-21.3v-42.7c0-11.8,9.6-21.3,21.3-21.3h28.4c3.9,0,7.1,3.2,7.1,7.1s-3.2,7.1-7.1,7.1
	H320c-3.9,0-7.1,3.2-7.1,7.1v42.7c0,3.9,3.2,7.1,7.1,7.1h28.4c3.9,0,7.1,3.2,7.1,7.1C355.6,423.5,352.4,426.7,348.4,426.7z"/>
<path d="M405.3,426.7h-14.2c-11.8,0-21.3-9.6-21.3-21.3v-42.7c0-11.8,9.6-21.3,21.3-21.3h14.2c11.8,0,21.3,9.6,21.3,21.3v42.7
	C426.7,417.1,417.1,426.7,405.3,426.7z M391.1,355.6c-3.9,0-7.1,3.2-7.1,7.1v42.7c0,3.9,3.2,7.1,7.1,7.1h14.2c3.9,0,7.1-3.2,7.1-7.1
	v-42.7c0-3.9-3.2-7.1-7.1-7.1H391.1z"/>
<path d="M259.6,426.7h-24.9c-3.9,0-7.1-3.2-7.1-7.1c0-3.9,3.2-7.1,7.1-7.1h24.9c5.9,0,10.7-4.8,10.7-10.7c0-5.9-4.8-10.7-10.7-10.7
	h-7.1c-13.7,0-24.9-11.2-24.9-24.9s11.2-24.9,24.9-24.9h24.9c3.9,0,7.1,3.2,7.1,7.1s-3.2,7.1-7.1,7.1h-24.9
	c-5.9,0-10.7,4.8-10.7,10.7s4.8,10.7,10.7,10.7h7.1c13.7,0,24.9,11.2,24.9,24.9C284.4,415.5,273.3,426.7,259.6,426.7z"/>
<path d="M229.5,317.4c-1.4,0-2.9-0.4-4.1-1.3c-23.2-16.4-47.2-23-73.5-20.1c-6.2,0.7-12.3-1.2-16.9-5.3c-4.5-4-7.1-9.7-7.1-15.7
	V107.9c0-10.6,8-19.8,18.5-21.3c33.9-5,66,4.4,95.3,28.2c29.3-23.8,61.4-33.2,95.3-28.2c10.5,1.5,18.4,10.6,18.4,21.2v167.1
	c0,6-2.6,11.7-7.1,15.7c-4.6,4.1-10.7,6-17,5.3c-23.8-2.7-45.7,2.4-67.1,15.7c-3.3,2.1-7.7,1.1-9.8-2.3c-2.1-3.3-1.1-7.7,2.2-9.8
	c23.8-14.9,49.4-20.9,76.3-17.8c2.1,0.2,4.3-0.4,5.9-1.8c1.5-1.3,2.3-3.1,2.3-5.1V107.9c0-3.6-2.7-6.7-6.2-7.2
	c-32.1-4.8-61,4.7-88.6,28.8c-2.7,2.3-6.7,2.3-9.4,0c-27.6-24.1-56.5-33.5-88.6-28.8c-3.6,0.5-6.3,3.6-6.3,7.2v167.1
	c0,2,0.8,3.8,2.3,5.1c1.6,1.4,3.7,2,5.8,1.8c29.6-3.3,57.5,4.4,83.3,22.6c3.2,2.3,4,6.7,1.7,9.9C234,316.4,231.8,317.4,229.5,317.4
	L229.5,317.4z"/>
<path d="M391.1,312.9c-3.9,0-7.1-3.2-7.1-7.1V135.1c0-3.9-3.2-7.1-7.1-7.1h-28.4c-3.9,0-7.1-3.2-7.1-7.1c0-3.9,3.2-7.1,7.1-7.1h28.4
	c11.8,0,21.3,9.6,21.3,21.3v170.7C398.2,309.7,395,312.9,391.1,312.9z"/>
<path d="M206.2,327.1h-99.6c-11.8,0-21.3-9.6-21.3-21.3V135.1c0-11.5,9.5-21.1,21.2-21.3h28.6c3.9,0,7.1,3.2,7.1,7.1
	c0,3.9-3.2,7.1-7.1,7.1h-28.4c-3.9,0.1-7.1,3.3-7.1,7.1v170.7c0,3.9,3.2,7.1,7.1,7.1h99.6c3.9,0,7.1,3.2,7.1,7.1
	S210.1,327.1,206.2,327.1z"/>
<path d="M241.8,298.7c-3.9,0-7.1-3.2-7.1-7.1V120.9c0-3.9,3.2-7.1,7.1-7.1c3.9,0,7.1,3.2,7.1,7.1v170.7
	C248.9,295.5,245.7,298.7,241.8,298.7z"/>
</svg>
