<?xml version="1.0" encoding="utf-8"?>
<!-- Generator: Adobe Illustrator 24.3.0, SVG Export Plug-In . SVG Version: 6.00 Build 0)  -->
<svg version="1.1" id="_x31__x2C_5" xmlns="http://www.w3.org/2000/svg" xmlns:xlink="http://www.w3.org/1999/xlink" x="0px"
	 y="0px" viewBox="0 0 512 512" style="enable-background:new 0 0 512 512;" xml:space="preserve">
<style type="text/css">
	.st0{fill:#EFEFEF;}
	.st1{fill:#A4AFC1;}
	.st2{fill:#F3F3F1;}
	.st3{fill:#EE4D4E;}
	.st4{fill:#CC0000;}
	.st5{fill:#D5DBE1;}
</style>
<g>
	<path class="st0" d="M59.3,119.1c0,98.4-51,165.9-51,213.3s27.2,147,245.3,147s250.1-133.9,250.1-186.1
		C503.7,49.2,59.3-55.1,59.3,119.1L59.3,119.1z"/>
</g>
<g>
	<path class="st1" d="M70.7,47.2l20.1-20.1l10.1,10.1L80.8,57.3L70.7,47.2z"/>
</g>
<g>
	<path class="st1" d="M12.9,105L33,84.9L43,95l-20.1,20.1L12.9,105z"/>
</g>
<g>
	<path class="st1" d="M15.4,37.2l10.1-10.1l20.1,20.1L35.5,57.3L15.4,37.2z"/>
</g>
<g>
	<path class="st2" d="M387.6,401.8H124.4c-15.7,0-28.4-12.7-28.4-28.4V160h320v213.3C416,389,403.3,401.8,387.6,401.8z"/>
</g>
<g>
	<path class="st3" d="M416,160H96v-21.3c0-15.7,12.7-28.4,28.4-28.4h263.1c15.7,0,28.4,12.7,28.4,28.4V160z"/>
</g>
<g>
	<path class="st3" d="M216.9,259.6h-64c-7.9,0-14.2-6.4-14.2-14.2V224c0-7.9,6.4-14.2,14.2-14.2h64c7.9,0,14.2,6.4,14.2,14.2v21.3
		C231.1,253.2,224.7,259.6,216.9,259.6z"/>
</g>
<g>
	<path class="st3" d="M216.9,359.1h-64c-7.9,0-14.2-6.4-14.2-14.2v-21.3c0-7.9,6.4-14.2,14.2-14.2h64c7.9,0,14.2,6.4,14.2,14.2v21.3
		C231.1,352.7,224.7,359.1,216.9,359.1z"/>
</g>
<g>
	<path class="st4" d="M156.4,110.2h-32c-15.7,0-28.4,12.7-28.4,28.4V160h32v-21.3C128,123,140.7,110.2,156.4,110.2z"/>
</g>
<g>
	<path class="st4" d="M170.7,245.3V224c0-7.9,6.4-14.2,14.2-14.2h-32c-7.9,0-14.2,6.4-14.2,14.2v21.3c0,7.9,6.4,14.2,14.2,14.2h32
		C177,259.6,170.7,253.2,170.7,245.3z"/>
</g>
<g>
	<path class="st4" d="M170.7,344.9v-21.3c0-7.9,6.4-14.2,14.2-14.2h-32c-7.9,0-14.2,6.4-14.2,14.2v21.3c0,7.9,6.4,14.2,14.2,14.2h32
		C177,359.1,170.7,352.7,170.7,344.9z"/>
</g>
<g>
	<path class="st5" d="M128,373.3V160H96v213.3c0,15.7,12.7,28.4,28.4,28.4h32C140.7,401.8,128,389,128,373.3z"/>
</g>
<g>
	<path d="M284.4,213.3H384v21.3h-99.6V213.3z"/>
</g>
<g>
	<path d="M284.4,270.2H384v21.3h-99.6V270.2z"/>
</g>
<g>
	<path d="M284.4,327.1H384v21.3h-99.6V327.1z"/>
</g>
<g>
	<path d="M216.9,270.2h-64c-13.7,0-24.9-11.2-24.9-24.9V224c0-13.7,11.2-24.9,24.9-24.9h64c13.7,0,24.9,11.2,24.9,24.9v21.3
		C241.8,259.1,230.6,270.2,216.9,270.2z M152.9,220.4c-2,0-3.6,1.6-3.6,3.6v21.3c0,2,1.6,3.6,3.6,3.6h64c2,0,3.6-1.6,3.6-3.6V224
		c0-2-1.6-3.6-3.6-3.6H152.9z"/>
</g>
<g>
	<path d="M216.9,369.8h-64c-13.7,0-24.9-11.2-24.9-24.9v-21.3c0-13.7,11.2-24.9,24.9-24.9h64c13.7,0,24.9,11.2,24.9,24.9v21.3
		C241.8,358.6,230.6,369.8,216.9,369.8z M152.9,320c-2,0-3.6,1.6-3.6,3.6v21.3c0,2,1.6,3.6,3.6,3.6h64c2,0,3.6-1.6,3.6-3.6v-21.3
		c0-2-1.6-3.6-3.6-3.6H152.9z"/>
</g>
<g>
	<path d="M387.6,412.4H124.4c-21.6,0-39.1-17.5-39.1-39.1V138.7c0-21.6,17.5-39.1,39.1-39.1h263.1c21.6,0,39.1,17.5,39.1,39.1v234.7
		C426.7,394.9,409.1,412.4,387.6,412.4z M124.4,120.9c-9.8,0-17.8,8-17.8,17.8v234.7c0,9.8,8,17.8,17.8,17.8h263.1
		c9.8,0,17.8-8,17.8-17.8V138.7c0-9.8-8-17.8-17.8-17.8H124.4z"/>
</g>
<g>
	<path d="M96,149.3h320v21.3H96V149.3z"/>
</g>
<g>
	<path d="M28.4,391.1h455.1v21.3H28.4V391.1z"/>
</g>
</svg>
