<svg enable-background="new 0 0 24 24" height="512" viewBox="0 0 24 24" width="512" xmlns="http://www.w3.org/2000/svg"><path d="m21 1h-18c-1.654 0-3 1.346-3 3v16c0 1.654 1.346 3 3 3h18c1.654 0 3-1.346 3-3v-16c0-1.654-1.346-3-3-3z" fill="#607d8b"/><path d="m21.731 22.25h-19.462c-.596 0-1.081-.484-1.081-1.081v-15.669h21.625v15.669c-.001.597-.486 1.081-1.082 1.081z" fill="#fff"/><circle cx="12" cy="14" fill="#fff" r="2"/><circle cx="12" cy="14" fill="#4caf50" r="6"/><path d="m12 20c-3.309 0-6-2.691-6-6s2.691-6 6-6 6 2.691 6 6-2.691 6-6 6zm0-10.5c-2.481 0-4.5 2.019-4.5 4.5s2.019 4.5 4.5 4.5 4.5-2.019 4.5-4.5-2.019-4.5-4.5-4.5z"/><path d="m13.75 16.5c-.192 0-.384-.073-.53-.22l-1.75-1.75c-.141-.141-.22-.331-.22-.53v-2.75c0-.414.336-.75.75-.75s.75.336.75.75v2.439l1.53 1.53c.293.293.293.768 0 1.061-.146.147-.338.22-.53.22z"/><path d="m21.25 23h-18.5c-1.517 0-2.75-1.233-2.75-2.75v-16.5c0-1.517 1.233-2.75 2.75-2.75h18.5c1.517 0 2.75 1.233 2.75 2.75v16.5c0 1.517-1.233 2.75-2.75 2.75zm-18.5-20.5c-.689 0-1.25.561-1.25 1.25v16.5c0 .689.561 1.25 1.25 1.25h18.5c.689 0 1.25-.561 1.25-1.25v-16.5c0-.689-.561-1.25-1.25-1.25z"/><path d="m23.25 6h-22.5c-.414 0-.75-.336-.75-.75s.336-.75.75-.75h22.5c.414 0 .75.336.75.75s-.336.75-.75.75z"/></svg>