<?xml version="1.0" encoding="utf-8"?>
<!-- Generator: Adobe Illustrator 24.3.0, SVG Export Plug-In . SVG Version: 6.00 Build 0)  -->
<svg version="1.1" id="_x31__x2C_5" xmlns="http://www.w3.org/2000/svg" xmlns:xlink="http://www.w3.org/1999/xlink" x="0px"
	 y="0px" viewBox="0 0 512 512" style="enable-background:new 0 0 512 512;" xml:space="preserve">
<style type="text/css">
	.st0{fill:#EFEFEF;}
	.st1{fill:#A4AFC1;}
	.st2{fill:#F3F3F1;}
	.st3{fill:#EE4D4E;}
	.st4{fill:#D5DBE1;}
	.st5{fill:#CC0000;}
</style>
<g>
	<path class="st0" d="M59.3,119.1c0,98.4-51,165.9-51,213.3s27.2,147,245.3,147s250.1-133.9,250.1-186.1
		C503.7,49.2,59.3-55.1,59.3,119.1L59.3,119.1z"/>
</g>
<g>
	<path class="st1" d="M72.9,28.4h14.2v28.4H72.9V28.4z"/>
</g>
<g>
	<path class="st1" d="M26.7,71.1h28.4v14.2H26.7V71.1z"/>
</g>
<g>
	<path class="st2" d="M387.6,401.8H124.4c-15.7,0-28.4-12.7-28.4-28.4V160h320v213.3C416,389,403.3,401.8,387.6,401.8z"/>
</g>
<g>
	<path class="st3" d="M416,160H96v-21.3c0-15.7,12.7-28.4,28.4-28.4h263.1c15.7,0,28.4,12.7,28.4,28.4V160z"/>
</g>
<g>
	<path class="st4" d="M131.6,373.3V160H96v213.3c0,15.7,12.7,28.4,28.4,28.4H160C144.3,401.8,131.6,389,131.6,373.3z"/>
</g>
<g>
	<path class="st5" d="M156.4,110.2h-32c-15.7,0-28.4,12.7-28.4,28.4V160h32v-21.3C128,123,140.7,110.2,156.4,110.2z"/>
</g>
<g>
	<path d="M316.4,270.2h-46.2v-21.3h35.6v-35.6h21.3v46.2C327.1,265.4,322.3,270.2,316.4,270.2z"/>
</g>
<g>
	<path d="M207.5,271.7l-20.7-5.2c7.9-31.3,36.1-53.1,68.5-53.1c16.2,0,31.8,5.5,44,15.5c8.9,6.9,16,16.1,20.3,26.7l-19.7,8.1
		c-2.9-7.1-7.7-13.4-13.9-18.1c-8.6-7.1-19.5-10.9-30.7-10.9C232.6,234.7,213,249.9,207.5,271.7L207.5,271.7z"/>
</g>
<g>
	<path d="M256.7,355.6c-16.2,0-31.8-5.5-44-15.5c-8.9-6.9-16-16.1-20.3-26.7l19.7-8.2c2.9,7.1,7.7,13.4,13.9,18.1
		c8.6,7.1,19.5,10.9,30.7,10.9c22.7,0,42.3-15.2,47.8-37l20.7,5.2C317.3,333.7,289.1,355.6,256.7,355.6z"/>
</g>
<g>
	<path d="M206.2,355.6h-21.3v-46.2c0-5.9,4.8-10.7,10.7-10.7h46.2V320h-35.6V355.6z"/>
</g>
<g>
	<path d="M387.6,412.4H124.4c-21.6,0-39.1-17.5-39.1-39.1V138.7c0-21.6,17.5-39.1,39.1-39.1h263.1c21.6,0,39.1,17.5,39.1,39.1v234.7
		C426.7,394.9,409.1,412.4,387.6,412.4z M124.4,120.9c-9.8,0-17.8,8-17.8,17.8v234.7c0,9.8,8,17.8,17.8,17.8h263.1
		c9.8,0,17.8-8,17.8-17.8V138.7c0-9.8-8-17.8-17.8-17.8H124.4z"/>
</g>
<g>
	<path d="M96,149.3h320v21.3H96V149.3z"/>
</g>
<g>
	<path d="M28.4,391.1h455.1v21.3H28.4V391.1z"/>
</g>
</svg>
